<svg width="980" height="1026" viewBox="0 0 980 1026" fill="none" xmlns="http://www.w3.org/2000/svg">
<rect width="200" height="50" fill="#70A8DC"/>
<path d="M67.1836 25.3945C65.2539 24.8398 63.8477 24.1602 62.9648 23.3555C62.0898 22.543 61.6523 21.543 61.6523 20.3555C61.6523 19.0117 62.1875 17.9023 63.2578 17.0273C64.3359 16.1445 65.7344 15.7031 67.4531 15.7031C68.625 15.7031 69.668 15.9297 70.582 16.3828C71.5039 16.8359 72.2148 17.4609 72.7148 18.2578C73.2227 19.0547 73.4766 19.9258 73.4766 20.8711H71.2148C71.2148 19.8398 70.8867 19.0312 70.2305 18.4453C69.5742 17.8516 68.6484 17.5547 67.4531 17.5547C66.3438 17.5547 65.4766 17.8008 64.8516 18.293C64.2344 18.7773 63.9258 19.4531 63.9258 20.3203C63.9258 21.0156 64.2188 21.6055 64.8047 22.0898C65.3984 22.5664 66.4023 23.0039 67.8164 23.4023C69.2383 23.8008 70.3477 24.2422 71.1445 24.7266C71.9492 25.2031 72.543 25.7617 72.9258 26.4023C73.3164 27.043 73.5117 27.7969 73.5117 28.6641C73.5117 30.0469 72.9727 31.1562 71.8945 31.9922C70.8164 32.8203 69.375 33.2344 67.5703 33.2344C66.3984 33.2344 65.3047 33.0117 64.2891 32.5664C63.2734 32.1133 62.4883 31.4961 61.9336 30.7148C61.3867 29.9336 61.1133 29.0469 61.1133 28.0547H63.375C63.375 29.0859 63.7539 29.9023 64.5117 30.5039C65.2773 31.0977 66.2969 31.3945 67.5703 31.3945C68.7578 31.3945 69.668 31.1523 70.3008 30.668C70.9336 30.1836 71.25 29.5234 71.25 28.6875C71.25 27.8516 70.957 27.207 70.3711 26.7539C69.7852 26.293 68.7227 25.8398 67.1836 25.3945ZM83.8945 33C83.7695 32.75 83.668 32.3047 83.5898 31.6641C82.582 32.7109 81.3789 33.2344 79.9805 33.2344C78.7305 33.2344 77.7031 32.8828 76.8984 32.1797C76.1016 31.4688 75.7031 30.5703 75.7031 29.4844C75.7031 28.1641 76.2031 27.1406 77.2031 26.4141C78.2109 25.6797 79.625 25.3125 81.4453 25.3125H83.5547V24.3164C83.5547 23.5586 83.3281 22.957 82.875 22.5117C82.4219 22.0586 81.7539 21.832 80.8711 21.832C80.0977 21.832 79.4492 22.0273 78.9258 22.418C78.4023 22.8086 78.1406 23.2812 78.1406 23.8359H75.9609C75.9609 23.2031 76.1836 22.5938 76.6289 22.0078C77.082 21.4141 77.6914 20.9453 78.457 20.6016C79.2305 20.2578 80.0781 20.0859 81 20.0859C82.4609 20.0859 83.6055 20.4531 84.4336 21.1875C85.2617 21.9141 85.6914 22.918 85.7227 24.1992V30.0352C85.7227 31.1992 85.8711 32.125 86.168 32.8125V33H83.8945ZM80.2969 31.3477C80.9766 31.3477 81.6211 31.1719 82.2305 30.8203C82.8398 30.4688 83.2812 30.0117 83.5547 29.4492V26.8477H81.8555C79.1992 26.8477 77.8711 27.625 77.8711 29.1797C77.8711 29.8594 78.0977 30.3906 78.5508 30.7734C79.0039 31.1562 79.5859 31.3477 80.2969 31.3477ZM91.4766 33H89.3086V15H91.4766V33ZM97.8984 17.25V20.3203H100.266V21.9961H97.8984V29.8594C97.8984 30.3672 98.0039 30.75 98.2148 31.0078C98.4258 31.2578 98.7852 31.3828 99.293 31.3828C99.543 31.3828 99.8867 31.3359 100.324 31.2422V33C99.7539 33.1562 99.1992 33.2344 98.6602 33.2344C97.6914 33.2344 96.9609 32.9414 96.4688 32.3555C95.9766 31.7695 95.7305 30.9375 95.7305 29.8594V21.9961H93.4219V20.3203H95.7305V17.25H97.8984ZM105.164 33H102.996V20.3203H105.164V33ZM102.82 16.957C102.82 16.6055 102.926 16.3086 103.137 16.0664C103.355 15.8242 103.676 15.7031 104.098 15.7031C104.52 15.7031 104.84 15.8242 105.059 16.0664C105.277 16.3086 105.387 16.6055 105.387 16.957C105.387 17.3086 105.277 17.6016 105.059 17.8359C104.84 18.0703 104.52 18.1875 104.098 18.1875C103.676 18.1875 103.355 18.0703 103.137 17.8359C102.926 17.6016 102.82 17.3086 102.82 16.957ZM113.906 33.2344C112.188 33.2344 110.789 32.6719 109.711 31.5469C108.633 30.4141 108.094 28.9023 108.094 27.0117V26.6133C108.094 25.3555 108.332 24.2344 108.809 23.25C109.293 22.2578 109.965 21.4844 110.824 20.9297C111.691 20.3672 112.629 20.0859 113.637 20.0859C115.285 20.0859 116.566 20.6289 117.48 21.7148C118.395 22.8008 118.852 24.3555 118.852 26.3789V27.2812H110.262C110.293 28.5312 110.656 29.543 111.352 30.3164C112.055 31.082 112.945 31.4648 114.023 31.4648C114.789 31.4648 115.438 31.3086 115.969 30.9961C116.5 30.6836 116.965 30.2695 117.363 29.7539L118.688 30.7852C117.625 32.418 116.031 33.2344 113.906 33.2344ZM113.637 21.8672C112.762 21.8672 112.027 22.1875 111.434 22.8281C110.84 23.4609 110.473 24.3516 110.332 25.5H116.684V25.3359C116.621 24.2344 116.324 23.3828 115.793 22.7812C115.262 22.1719 114.543 21.8672 113.637 21.8672ZM123.422 20.3203L123.492 21.9141C124.461 20.6953 125.727 20.0859 127.289 20.0859C129.969 20.0859 131.32 21.5977 131.344 24.6211V33H129.176V24.6094C129.168 23.6953 128.957 23.0195 128.543 22.582C128.137 22.1445 127.5 21.9258 126.633 21.9258C125.93 21.9258 125.312 22.1133 124.781 22.4883C124.25 22.8633 123.836 23.3555 123.539 23.9648V33H121.371V20.3203H123.422ZM137.555 17.25V20.3203H139.922V21.9961H137.555V29.8594C137.555 30.3672 137.66 30.75 137.871 31.0078C138.082 31.2578 138.441 31.3828 138.949 31.3828C139.199 31.3828 139.543 31.3359 139.98 31.2422V33C139.41 33.1562 138.855 33.2344 138.316 33.2344C137.348 33.2344 136.617 32.9414 136.125 32.3555C135.633 31.7695 135.387 30.9375 135.387 29.8594V21.9961H133.078V20.3203H135.387V17.25H137.555Z" fill="black"/>
<rect x="260" y="68" width="200" height="50" fill="#70A8DC"/>
<path d="M326.184 93.3945C324.254 92.8398 322.848 92.1602 321.965 91.3555C321.09 90.543 320.652 89.543 320.652 88.3555C320.652 87.0117 321.188 85.9023 322.258 85.0273C323.336 84.1445 324.734 83.7031 326.453 83.7031C327.625 83.7031 328.668 83.9297 329.582 84.3828C330.504 84.8359 331.215 85.4609 331.715 86.2578C332.223 87.0547 332.477 87.9258 332.477 88.8711H330.215C330.215 87.8398 329.887 87.0312 329.23 86.4453C328.574 85.8516 327.648 85.5547 326.453 85.5547C325.344 85.5547 324.477 85.8008 323.852 86.293C323.234 86.7773 322.926 87.4531 322.926 88.3203C322.926 89.0156 323.219 89.6055 323.805 90.0898C324.398 90.5664 325.402 91.0039 326.816 91.4023C328.238 91.8008 329.348 92.2422 330.145 92.7266C330.949 93.2031 331.543 93.7617 331.926 94.4023C332.316 95.043 332.512 95.7969 332.512 96.6641C332.512 98.0469 331.973 99.1562 330.895 99.9922C329.816 100.82 328.375 101.234 326.57 101.234C325.398 101.234 324.305 101.012 323.289 100.566C322.273 100.113 321.488 99.4961 320.934 98.7148C320.387 97.9336 320.113 97.0469 320.113 96.0547H322.375C322.375 97.0859 322.754 97.9023 323.512 98.5039C324.277 99.0977 325.297 99.3945 326.57 99.3945C327.758 99.3945 328.668 99.1523 329.301 98.668C329.934 98.1836 330.25 97.5234 330.25 96.6875C330.25 95.8516 329.957 95.207 329.371 94.7539C328.785 94.293 327.723 93.8398 326.184 93.3945ZM342.895 101C342.77 100.75 342.668 100.305 342.59 99.6641C341.582 100.711 340.379 101.234 338.98 101.234C337.73 101.234 336.703 100.883 335.898 100.18C335.102 99.4688 334.703 98.5703 334.703 97.4844C334.703 96.1641 335.203 95.1406 336.203 94.4141C337.211 93.6797 338.625 93.3125 340.445 93.3125H342.555V92.3164C342.555 91.5586 342.328 90.957 341.875 90.5117C341.422 90.0586 340.754 89.832 339.871 89.832C339.098 89.832 338.449 90.0273 337.926 90.418C337.402 90.8086 337.141 91.2812 337.141 91.8359H334.961C334.961 91.2031 335.184 90.5938 335.629 90.0078C336.082 89.4141 336.691 88.9453 337.457 88.6016C338.23 88.2578 339.078 88.0859 340 88.0859C341.461 88.0859 342.605 88.4531 343.434 89.1875C344.262 89.9141 344.691 90.918 344.723 92.1992V98.0352C344.723 99.1992 344.871 100.125 345.168 100.812V101H342.895ZM339.297 99.3477C339.977 99.3477 340.621 99.1719 341.23 98.8203C341.84 98.4688 342.281 98.0117 342.555 97.4492V94.8477H340.855C338.199 94.8477 336.871 95.625 336.871 97.1797C336.871 97.8594 337.098 98.3906 337.551 98.7734C338.004 99.1562 338.586 99.3477 339.297 99.3477ZM350.477 101H348.309V83H350.477V101ZM356.898 85.25V88.3203H359.266V89.9961H356.898V97.8594C356.898 98.3672 357.004 98.75 357.215 99.0078C357.426 99.2578 357.785 99.3828 358.293 99.3828C358.543 99.3828 358.887 99.3359 359.324 99.2422V101C358.754 101.156 358.199 101.234 357.66 101.234C356.691 101.234 355.961 100.941 355.469 100.355C354.977 99.7695 354.73 98.9375 354.73 97.8594V89.9961H352.422V88.3203H354.73V85.25H356.898ZM364.164 101H361.996V88.3203H364.164V101ZM361.82 84.957C361.82 84.6055 361.926 84.3086 362.137 84.0664C362.355 83.8242 362.676 83.7031 363.098 83.7031C363.52 83.7031 363.84 83.8242 364.059 84.0664C364.277 84.3086 364.387 84.6055 364.387 84.957C364.387 85.3086 364.277 85.6016 364.059 85.8359C363.84 86.0703 363.52 86.1875 363.098 86.1875C362.676 86.1875 362.355 86.0703 362.137 85.8359C361.926 85.6016 361.82 85.3086 361.82 84.957ZM372.906 101.234C371.188 101.234 369.789 100.672 368.711 99.5469C367.633 98.4141 367.094 96.9023 367.094 95.0117V94.6133C367.094 93.3555 367.332 92.2344 367.809 91.25C368.293 90.2578 368.965 89.4844 369.824 88.9297C370.691 88.3672 371.629 88.0859 372.637 88.0859C374.285 88.0859 375.566 88.6289 376.48 89.7148C377.395 90.8008 377.852 92.3555 377.852 94.3789V95.2812H369.262C369.293 96.5312 369.656 97.543 370.352 98.3164C371.055 99.082 371.945 99.4648 373.023 99.4648C373.789 99.4648 374.438 99.3086 374.969 98.9961C375.5 98.6836 375.965 98.2695 376.363 97.7539L377.688 98.7852C376.625 100.418 375.031 101.234 372.906 101.234ZM372.637 89.8672C371.762 89.8672 371.027 90.1875 370.434 90.8281C369.84 91.4609 369.473 92.3516 369.332 93.5H375.684V93.3359C375.621 92.2344 375.324 91.3828 374.793 90.7812C374.262 90.1719 373.543 89.8672 372.637 89.8672ZM382.422 88.3203L382.492 89.9141C383.461 88.6953 384.727 88.0859 386.289 88.0859C388.969 88.0859 390.32 89.5977 390.344 92.6211V101H388.176V92.6094C388.168 91.6953 387.957 91.0195 387.543 90.582C387.137 90.1445 386.5 89.9258 385.633 89.9258C384.93 89.9258 384.312 90.1133 383.781 90.4883C383.25 90.8633 382.836 91.3555 382.539 91.9648V101H380.371V88.3203H382.422ZM396.555 85.25V88.3203H398.922V89.9961H396.555V97.8594C396.555 98.3672 396.66 98.75 396.871 99.0078C397.082 99.2578 397.441 99.3828 397.949 99.3828C398.199 99.3828 398.543 99.3359 398.98 99.2422V101C398.41 101.156 397.855 101.234 397.316 101.234C396.348 101.234 395.617 100.941 395.125 100.355C394.633 99.7695 394.387 98.9375 394.387 97.8594V89.9961H392.078V88.3203H394.387V85.25H396.555Z" fill="black"/>
<rect x="520" y="187" width="200" height="50" fill="#70A8DC"/>
<path d="M586.184 212.395C584.254 211.84 582.848 211.16 581.965 210.355C581.09 209.543 580.652 208.543 580.652 207.355C580.652 206.012 581.188 204.902 582.258 204.027C583.336 203.145 584.734 202.703 586.453 202.703C587.625 202.703 588.668 202.93 589.582 203.383C590.504 203.836 591.215 204.461 591.715 205.258C592.223 206.055 592.477 206.926 592.477 207.871H590.215C590.215 206.84 589.887 206.031 589.23 205.445C588.574 204.852 587.648 204.555 586.453 204.555C585.344 204.555 584.477 204.801 583.852 205.293C583.234 205.777 582.926 206.453 582.926 207.32C582.926 208.016 583.219 208.605 583.805 209.09C584.398 209.566 585.402 210.004 586.816 210.402C588.238 210.801 589.348 211.242 590.145 211.727C590.949 212.203 591.543 212.762 591.926 213.402C592.316 214.043 592.512 214.797 592.512 215.664C592.512 217.047 591.973 218.156 590.895 218.992C589.816 219.82 588.375 220.234 586.57 220.234C585.398 220.234 584.305 220.012 583.289 219.566C582.273 219.113 581.488 218.496 580.934 217.715C580.387 216.934 580.113 216.047 580.113 215.055H582.375C582.375 216.086 582.754 216.902 583.512 217.504C584.277 218.098 585.297 218.395 586.57 218.395C587.758 218.395 588.668 218.152 589.301 217.668C589.934 217.184 590.25 216.523 590.25 215.688C590.25 214.852 589.957 214.207 589.371 213.754C588.785 213.293 587.723 212.84 586.184 212.395ZM602.895 220C602.77 219.75 602.668 219.305 602.59 218.664C601.582 219.711 600.379 220.234 598.98 220.234C597.73 220.234 596.703 219.883 595.898 219.18C595.102 218.469 594.703 217.57 594.703 216.484C594.703 215.164 595.203 214.141 596.203 213.414C597.211 212.68 598.625 212.312 600.445 212.312H602.555V211.316C602.555 210.559 602.328 209.957 601.875 209.512C601.422 209.059 600.754 208.832 599.871 208.832C599.098 208.832 598.449 209.027 597.926 209.418C597.402 209.809 597.141 210.281 597.141 210.836H594.961C594.961 210.203 595.184 209.594 595.629 209.008C596.082 208.414 596.691 207.945 597.457 207.602C598.23 207.258 599.078 207.086 600 207.086C601.461 207.086 602.605 207.453 603.434 208.188C604.262 208.914 604.691 209.918 604.723 211.199V217.035C604.723 218.199 604.871 219.125 605.168 219.812V220H602.895ZM599.297 218.348C599.977 218.348 600.621 218.172 601.23 217.82C601.84 217.469 602.281 217.012 602.555 216.449V213.848H600.855C598.199 213.848 596.871 214.625 596.871 216.18C596.871 216.859 597.098 217.391 597.551 217.773C598.004 218.156 598.586 218.348 599.297 218.348ZM610.477 220H608.309V202H610.477V220ZM616.898 204.25V207.32H619.266V208.996H616.898V216.859C616.898 217.367 617.004 217.75 617.215 218.008C617.426 218.258 617.785 218.383 618.293 218.383C618.543 218.383 618.887 218.336 619.324 218.242V220C618.754 220.156 618.199 220.234 617.66 220.234C616.691 220.234 615.961 219.941 615.469 219.355C614.977 218.77 614.73 217.938 614.73 216.859V208.996H612.422V207.32H614.73V204.25H616.898ZM624.164 220H621.996V207.32H624.164V220ZM621.82 203.957C621.82 203.605 621.926 203.309 622.137 203.066C622.355 202.824 622.676 202.703 623.098 202.703C623.52 202.703 623.84 202.824 624.059 203.066C624.277 203.309 624.387 203.605 624.387 203.957C624.387 204.309 624.277 204.602 624.059 204.836C623.84 205.07 623.52 205.188 623.098 205.188C622.676 205.188 622.355 205.07 622.137 204.836C621.926 204.602 621.82 204.309 621.82 203.957ZM632.906 220.234C631.188 220.234 629.789 219.672 628.711 218.547C627.633 217.414 627.094 215.902 627.094 214.012V213.613C627.094 212.355 627.332 211.234 627.809 210.25C628.293 209.258 628.965 208.484 629.824 207.93C630.691 207.367 631.629 207.086 632.637 207.086C634.285 207.086 635.566 207.629 636.48 208.715C637.395 209.801 637.852 211.355 637.852 213.379V214.281H629.262C629.293 215.531 629.656 216.543 630.352 217.316C631.055 218.082 631.945 218.465 633.023 218.465C633.789 218.465 634.438 218.309 634.969 217.996C635.5 217.684 635.965 217.27 636.363 216.754L637.688 217.785C636.625 219.418 635.031 220.234 632.906 220.234ZM632.637 208.867C631.762 208.867 631.027 209.188 630.434 209.828C629.84 210.461 629.473 211.352 629.332 212.5H635.684V212.336C635.621 211.234 635.324 210.383 634.793 209.781C634.262 209.172 633.543 208.867 632.637 208.867ZM642.422 207.32L642.492 208.914C643.461 207.695 644.727 207.086 646.289 207.086C648.969 207.086 650.32 208.598 650.344 211.621V220H648.176V211.609C648.168 210.695 647.957 210.02 647.543 209.582C647.137 209.145 646.5 208.926 645.633 208.926C644.93 208.926 644.312 209.113 643.781 209.488C643.25 209.863 642.836 210.355 642.539 210.965V220H640.371V207.32H642.422ZM656.555 204.25V207.32H658.922V208.996H656.555V216.859C656.555 217.367 656.66 217.75 656.871 218.008C657.082 218.258 657.441 218.383 657.949 218.383C658.199 218.383 658.543 218.336 658.98 218.242V220C658.41 220.156 657.855 220.234 657.316 220.234C656.348 220.234 655.617 219.941 655.125 219.355C654.633 218.77 654.387 217.938 654.387 216.859V208.996H652.078V207.32H654.387V204.25H656.555Z" fill="black"/>
<rect x="520" y="723" width="200" height="50" fill="#70A8DC"/>
<path d="M603.238 756H600.977V748.113H592.375V756H590.125V738.938H592.375V746.273H600.977V738.938H603.238V756ZM614.723 756C614.598 755.75 614.496 755.305 614.418 754.664C613.41 755.711 612.207 756.234 610.809 756.234C609.559 756.234 608.531 755.883 607.727 755.18C606.93 754.469 606.531 753.57 606.531 752.484C606.531 751.164 607.031 750.141 608.031 749.414C609.039 748.68 610.453 748.312 612.273 748.312H614.383V747.316C614.383 746.559 614.156 745.957 613.703 745.512C613.25 745.059 612.582 744.832 611.699 744.832C610.926 744.832 610.277 745.027 609.754 745.418C609.23 745.809 608.969 746.281 608.969 746.836H606.789C606.789 746.203 607.012 745.594 607.457 745.008C607.91 744.414 608.52 743.945 609.285 743.602C610.059 743.258 610.906 743.086 611.828 743.086C613.289 743.086 614.434 743.453 615.262 744.188C616.09 744.914 616.52 745.918 616.551 747.199V753.035C616.551 754.199 616.699 755.125 616.996 755.812V756H614.723ZM611.125 754.348C611.805 754.348 612.449 754.172 613.059 753.82C613.668 753.469 614.109 753.012 614.383 752.449V749.848H612.684C610.027 749.848 608.699 750.625 608.699 752.18C608.699 752.859 608.926 753.391 609.379 753.773C609.832 754.156 610.414 754.348 611.125 754.348ZM622.891 740.25V743.32H625.258V744.996H622.891V752.859C622.891 753.367 622.996 753.75 623.207 754.008C623.418 754.258 623.777 754.383 624.285 754.383C624.535 754.383 624.879 754.336 625.316 754.242V756C624.746 756.156 624.191 756.234 623.652 756.234C622.684 756.234 621.953 755.941 621.461 755.355C620.969 754.77 620.723 753.938 620.723 752.859V744.996H618.414V743.32H620.723V740.25H622.891ZM626.992 749.543C626.992 748.301 627.234 747.184 627.719 746.191C628.211 745.199 628.891 744.434 629.758 743.895C630.633 743.355 631.629 743.086 632.746 743.086C634.473 743.086 635.867 743.684 636.93 744.879C638 746.074 638.535 747.664 638.535 749.648V749.801C638.535 751.035 638.297 752.145 637.82 753.129C637.352 754.105 636.676 754.867 635.793 755.414C634.918 755.961 633.91 756.234 632.77 756.234C631.051 756.234 629.656 755.637 628.586 754.441C627.523 753.246 626.992 751.664 626.992 749.695V749.543ZM629.172 749.801C629.172 751.207 629.496 752.336 630.145 753.188C630.801 754.039 631.676 754.465 632.77 754.465C633.871 754.465 634.746 754.035 635.395 753.176C636.043 752.309 636.367 751.098 636.367 749.543C636.367 748.152 636.035 747.027 635.371 746.168C634.715 745.301 633.84 744.867 632.746 744.867C631.676 744.867 630.812 745.293 630.156 746.145C629.5 746.996 629.172 748.215 629.172 749.801ZM643.305 743.32L643.375 744.914C644.344 743.695 645.609 743.086 647.172 743.086C649.852 743.086 651.203 744.598 651.227 747.621V756H649.059V747.609C649.051 746.695 648.84 746.02 648.426 745.582C648.02 745.145 647.383 744.926 646.516 744.926C645.812 744.926 645.195 745.113 644.664 745.488C644.133 745.863 643.719 746.355 643.422 746.965V756H641.254V743.32H643.305Z" fill="black"/>
<rect x="780" y="451" width="200" height="50" fill="#70A8DC"/>
<rect x="260" y="327" width="200" height="50" fill="#70A8DC"/>
<path d="M339.023 360H336.855V347.32H339.023V360ZM336.68 343.957C336.68 343.605 336.785 343.309 336.996 343.066C337.215 342.824 337.535 342.703 337.957 342.703C338.379 342.703 338.699 342.824 338.918 343.066C339.137 343.309 339.246 343.605 339.246 343.957C339.246 344.309 339.137 344.602 338.918 344.836C338.699 345.07 338.379 345.188 337.957 345.188C337.535 345.188 337.215 345.07 336.996 344.836C336.785 344.602 336.68 344.309 336.68 343.957ZM342.551 358.863C342.551 358.488 342.66 358.176 342.879 357.926C343.105 357.676 343.441 357.551 343.887 357.551C344.332 357.551 344.668 357.676 344.895 357.926C345.129 358.176 345.246 358.488 345.246 358.863C345.246 359.223 345.129 359.523 344.895 359.766C344.668 360.008 344.332 360.129 343.887 360.129C343.441 360.129 343.105 360.008 342.879 359.766C342.66 359.523 342.551 359.223 342.551 358.863ZM356.215 356.637C356.215 356.051 355.992 355.598 355.547 355.277C355.109 354.949 354.34 354.668 353.238 354.434C352.145 354.199 351.273 353.918 350.625 353.59C349.984 353.262 349.508 352.871 349.195 352.418C348.891 351.965 348.738 351.426 348.738 350.801C348.738 349.762 349.176 348.883 350.051 348.164C350.934 347.445 352.059 347.086 353.426 347.086C354.863 347.086 356.027 347.457 356.918 348.199C357.816 348.941 358.266 349.891 358.266 351.047H356.086C356.086 350.453 355.832 349.941 355.324 349.512C354.824 349.082 354.191 348.867 353.426 348.867C352.637 348.867 352.02 349.039 351.574 349.383C351.129 349.727 350.906 350.176 350.906 350.73C350.906 351.254 351.113 351.648 351.527 351.914C351.941 352.18 352.688 352.434 353.766 352.676C354.852 352.918 355.73 353.207 356.402 353.543C357.074 353.879 357.57 354.285 357.891 354.762C358.219 355.23 358.383 355.805 358.383 356.484C358.383 357.617 357.93 358.527 357.023 359.215C356.117 359.895 354.941 360.234 353.496 360.234C352.48 360.234 351.582 360.055 350.801 359.695C350.02 359.336 349.406 358.836 348.961 358.195C348.523 357.547 348.305 356.848 348.305 356.098H350.473C350.512 356.824 350.801 357.402 351.34 357.832C351.887 358.254 352.605 358.465 353.496 358.465C354.316 358.465 354.973 358.301 355.465 357.973C355.965 357.637 356.215 357.191 356.215 356.637ZM369.035 358.746C368.191 359.738 366.953 360.234 365.32 360.234C363.969 360.234 362.938 359.844 362.227 359.062C361.523 358.273 361.168 357.109 361.16 355.57V347.32H363.328V355.512C363.328 357.434 364.109 358.395 365.672 358.395C367.328 358.395 368.43 357.777 368.977 356.543V347.32H371.145V360H369.082L369.035 358.746ZM377.988 354.129L376.629 355.547V360H374.461V342H376.629V352.887L377.789 351.492L381.738 347.32H384.375L379.441 352.617L384.949 360H382.406L377.988 354.129Z" fill="black"/>
<rect x="260" y="591" width="200" height="50" fill="#70A8DC"/>
<path d="M343.238 624H340.977V616.113H332.375V624H330.125V606.938H332.375V614.273H340.977V606.938H343.238V624ZM354.723 624C354.598 623.75 354.496 623.305 354.418 622.664C353.41 623.711 352.207 624.234 350.809 624.234C349.559 624.234 348.531 623.883 347.727 623.18C346.93 622.469 346.531 621.57 346.531 620.484C346.531 619.164 347.031 618.141 348.031 617.414C349.039 616.68 350.453 616.312 352.273 616.312H354.383V615.316C354.383 614.559 354.156 613.957 353.703 613.512C353.25 613.059 352.582 612.832 351.699 612.832C350.926 612.832 350.277 613.027 349.754 613.418C349.23 613.809 348.969 614.281 348.969 614.836H346.789C346.789 614.203 347.012 613.594 347.457 613.008C347.91 612.414 348.52 611.945 349.285 611.602C350.059 611.258 350.906 611.086 351.828 611.086C353.289 611.086 354.434 611.453 355.262 612.188C356.09 612.914 356.52 613.918 356.551 615.199V621.035C356.551 622.199 356.699 623.125 356.996 623.812V624H354.723ZM351.125 622.348C351.805 622.348 352.449 622.172 353.059 621.82C353.668 621.469 354.109 621.012 354.383 620.449V617.848H352.684C350.027 617.848 348.699 618.625 348.699 620.18C348.699 620.859 348.926 621.391 349.379 621.773C349.832 622.156 350.414 622.348 351.125 622.348ZM362.891 608.25V611.32H365.258V612.996H362.891V620.859C362.891 621.367 362.996 621.75 363.207 622.008C363.418 622.258 363.777 622.383 364.285 622.383C364.535 622.383 364.879 622.336 365.316 622.242V624C364.746 624.156 364.191 624.234 363.652 624.234C362.684 624.234 361.953 623.941 361.461 623.355C360.969 622.77 360.723 621.938 360.723 620.859V612.996H358.414V611.32H360.723V608.25H362.891ZM366.992 617.543C366.992 616.301 367.234 615.184 367.719 614.191C368.211 613.199 368.891 612.434 369.758 611.895C370.633 611.355 371.629 611.086 372.746 611.086C374.473 611.086 375.867 611.684 376.93 612.879C378 614.074 378.535 615.664 378.535 617.648V617.801C378.535 619.035 378.297 620.145 377.82 621.129C377.352 622.105 376.676 622.867 375.793 623.414C374.918 623.961 373.91 624.234 372.77 624.234C371.051 624.234 369.656 623.637 368.586 622.441C367.523 621.246 366.992 619.664 366.992 617.695V617.543ZM369.172 617.801C369.172 619.207 369.496 620.336 370.145 621.188C370.801 622.039 371.676 622.465 372.77 622.465C373.871 622.465 374.746 622.035 375.395 621.176C376.043 620.309 376.367 619.098 376.367 617.543C376.367 616.152 376.035 615.027 375.371 614.168C374.715 613.301 373.84 612.867 372.746 612.867C371.676 612.867 370.812 613.293 370.156 614.145C369.5 614.996 369.172 616.215 369.172 617.801ZM383.305 611.32L383.375 612.914C384.344 611.695 385.609 611.086 387.172 611.086C389.852 611.086 391.203 612.598 391.227 615.621V624H389.059V615.609C389.051 614.695 388.84 614.02 388.426 613.582C388.02 613.145 387.383 612.926 386.516 612.926C385.812 612.926 385.195 613.113 384.664 613.488C384.133 613.863 383.719 614.355 383.422 614.965V624H381.254V611.32H383.305Z" fill="black"/>
<rect x="260" y="855" width="200" height="50" fill="#70A8DC"/>
<path d="M336.277 888V870.938H341.855C343.707 870.938 345.098 871.32 346.027 872.086C346.965 872.852 347.434 873.984 347.434 875.484C347.434 876.281 347.207 876.988 346.754 877.605C346.301 878.215 345.684 878.688 344.902 879.023C345.824 879.281 346.551 879.773 347.082 880.5C347.621 881.219 347.891 882.078 347.891 883.078C347.891 884.609 347.395 885.812 346.402 886.688C345.41 887.562 344.008 888 342.195 888H336.277ZM338.527 880.02V886.16H342.242C343.289 886.16 344.113 885.891 344.715 885.352C345.324 884.805 345.629 884.055 345.629 883.102C345.629 881.047 344.512 880.02 342.277 880.02H338.527ZM338.527 878.215H341.926C342.91 878.215 343.695 877.969 344.281 877.477C344.875 876.984 345.172 876.316 345.172 875.473C345.172 874.535 344.898 873.855 344.352 873.434C343.805 873.004 342.973 872.789 341.855 872.789H338.527V878.215ZM356.152 888.234C354.434 888.234 353.035 887.672 351.957 886.547C350.879 885.414 350.34 883.902 350.34 882.012V881.613C350.34 880.355 350.578 879.234 351.055 878.25C351.539 877.258 352.211 876.484 353.07 875.93C353.938 875.367 354.875 875.086 355.883 875.086C357.531 875.086 358.812 875.629 359.727 876.715C360.641 877.801 361.098 879.355 361.098 881.379V882.281H352.508C352.539 883.531 352.902 884.543 353.598 885.316C354.301 886.082 355.191 886.465 356.27 886.465C357.035 886.465 357.684 886.309 358.215 885.996C358.746 885.684 359.211 885.27 359.609 884.754L360.934 885.785C359.871 887.418 358.277 888.234 356.152 888.234ZM355.883 876.867C355.008 876.867 354.273 877.188 353.68 877.828C353.086 878.461 352.719 879.352 352.578 880.5H358.93V880.336C358.867 879.234 358.57 878.383 358.039 877.781C357.508 877.172 356.789 876.867 355.883 876.867ZM368.703 886.465C369.477 886.465 370.152 886.23 370.73 885.762C371.309 885.293 371.629 884.707 371.691 884.004H373.742C373.703 884.73 373.453 885.422 372.992 886.078C372.531 886.734 371.914 887.258 371.141 887.648C370.375 888.039 369.562 888.234 368.703 888.234C366.977 888.234 365.602 887.66 364.578 886.512C363.562 885.355 363.055 883.777 363.055 881.777V881.414C363.055 880.18 363.281 879.082 363.734 878.121C364.188 877.16 364.836 876.414 365.68 875.883C366.531 875.352 367.535 875.086 368.691 875.086C370.113 875.086 371.293 875.512 372.23 876.363C373.176 877.215 373.68 878.32 373.742 879.68H371.691C371.629 878.859 371.316 878.188 370.754 877.664C370.199 877.133 369.512 876.867 368.691 876.867C367.59 876.867 366.734 877.266 366.125 878.062C365.523 878.852 365.223 879.996 365.223 881.496V881.906C365.223 883.367 365.523 884.492 366.125 885.281C366.727 886.07 367.586 886.465 368.703 886.465ZM379.719 882.129L378.359 883.547V888H376.191V870H378.359V880.887L379.52 879.492L383.469 875.32H386.105L381.172 880.617L386.68 888H384.137L379.719 882.129Z" fill="black"/>
<rect y="132" width="200" height="50" fill="#70A8DC"/>
<path d="M71.8281 162.012L76.7031 147.938H79.1641L72.8359 165H70.8438L64.5273 147.938H66.9766L71.8281 162.012ZM88.4102 165C88.2852 164.75 88.1836 164.305 88.1055 163.664C87.0977 164.711 85.8945 165.234 84.4961 165.234C83.2461 165.234 82.2188 164.883 81.4141 164.18C80.6172 163.469 80.2188 162.57 80.2188 161.484C80.2188 160.164 80.7188 159.141 81.7188 158.414C82.7266 157.68 84.1406 157.312 85.9609 157.312H88.0703V156.316C88.0703 155.559 87.8438 154.957 87.3906 154.512C86.9375 154.059 86.2695 153.832 85.3867 153.832C84.6133 153.832 83.9648 154.027 83.4414 154.418C82.918 154.809 82.6562 155.281 82.6562 155.836H80.4766C80.4766 155.203 80.6992 154.594 81.1445 154.008C81.5977 153.414 82.207 152.945 82.9727 152.602C83.7461 152.258 84.5938 152.086 85.5156 152.086C86.9766 152.086 88.1211 152.453 88.9492 153.188C89.7773 153.914 90.207 154.918 90.2383 156.199V162.035C90.2383 163.199 90.3867 164.125 90.6836 164.812V165H88.4102ZM84.8125 163.348C85.4922 163.348 86.1367 163.172 86.7461 162.82C87.3555 162.469 87.7969 162.012 88.0703 161.449V158.848H86.3711C83.7148 158.848 82.3867 159.625 82.3867 161.18C82.3867 161.859 82.6133 162.391 83.0664 162.773C83.5195 163.156 84.1016 163.348 84.8125 163.348ZM95.6875 152.32L95.7578 153.914C96.7266 152.695 97.9922 152.086 99.5547 152.086C102.234 152.086 103.586 153.598 103.609 156.621V165H101.441V156.609C101.434 155.695 101.223 155.02 100.809 154.582C100.402 154.145 99.7656 153.926 98.8984 153.926C98.1953 153.926 97.5781 154.113 97.0469 154.488C96.5156 154.863 96.1016 155.355 95.8047 155.965V165H93.6367V152.32H95.6875ZM109.234 165H107.066V152.32H109.234V165ZM106.891 148.957C106.891 148.605 106.996 148.309 107.207 148.066C107.426 147.824 107.746 147.703 108.168 147.703C108.59 147.703 108.91 147.824 109.129 148.066C109.348 148.309 109.457 148.605 109.457 148.957C109.457 149.309 109.348 149.602 109.129 149.836C108.91 150.07 108.59 150.188 108.168 150.188C107.746 150.188 107.426 150.07 107.207 149.836C106.996 149.602 106.891 149.309 106.891 148.957ZM115.07 165H112.902V147H115.07V165ZM120.906 165H118.738V147H120.906V165ZM132.215 165C132.09 164.75 131.988 164.305 131.91 163.664C130.902 164.711 129.699 165.234 128.301 165.234C127.051 165.234 126.023 164.883 125.219 164.18C124.422 163.469 124.023 162.57 124.023 161.484C124.023 160.164 124.523 159.141 125.523 158.414C126.531 157.68 127.945 157.312 129.766 157.312H131.875V156.316C131.875 155.559 131.648 154.957 131.195 154.512C130.742 154.059 130.074 153.832 129.191 153.832C128.418 153.832 127.77 154.027 127.246 154.418C126.723 154.809 126.461 155.281 126.461 155.836H124.281C124.281 155.203 124.504 154.594 124.949 154.008C125.402 153.414 126.012 152.945 126.777 152.602C127.551 152.258 128.398 152.086 129.32 152.086C130.781 152.086 131.926 152.453 132.754 153.188C133.582 153.914 134.012 154.918 134.043 156.199V162.035C134.043 163.199 134.191 164.125 134.488 164.812V165H132.215ZM128.617 163.348C129.297 163.348 129.941 163.172 130.551 162.82C131.16 162.469 131.602 162.012 131.875 161.449V158.848H130.176C127.52 158.848 126.191 159.625 126.191 161.18C126.191 161.859 126.418 162.391 126.871 162.773C127.324 163.156 127.906 163.348 128.617 163.348Z" fill="black"/>
<rect y="264" width="200" height="50" fill="#70A8DC"/>
<path d="M79.0234 297H76.8555V284.32H79.0234V297ZM76.6797 280.957C76.6797 280.605 76.7852 280.309 76.9961 280.066C77.2148 279.824 77.5352 279.703 77.957 279.703C78.3789 279.703 78.6992 279.824 78.918 280.066C79.1367 280.309 79.2461 280.605 79.2461 280.957C79.2461 281.309 79.1367 281.602 78.918 281.836C78.6992 282.07 78.3789 282.188 77.957 282.188C77.5352 282.188 77.2148 282.07 76.9961 281.836C76.7852 281.602 76.6797 281.309 76.6797 280.957ZM82.5508 295.863C82.5508 295.488 82.6602 295.176 82.8789 294.926C83.1055 294.676 83.4414 294.551 83.8867 294.551C84.332 294.551 84.668 294.676 84.8945 294.926C85.1289 295.176 85.2461 295.488 85.2461 295.863C85.2461 296.223 85.1289 296.523 84.8945 296.766C84.668 297.008 84.332 297.129 83.8867 297.129C83.4414 297.129 83.1055 297.008 82.8789 296.766C82.6602 296.523 82.5508 296.223 82.5508 295.863ZM96.2148 293.637C96.2148 293.051 95.9922 292.598 95.5469 292.277C95.1094 291.949 94.3398 291.668 93.2383 291.434C92.1445 291.199 91.2734 290.918 90.625 290.59C89.9844 290.262 89.5078 289.871 89.1953 289.418C88.8906 288.965 88.7383 288.426 88.7383 287.801C88.7383 286.762 89.1758 285.883 90.0508 285.164C90.9336 284.445 92.0586 284.086 93.4258 284.086C94.8633 284.086 96.0273 284.457 96.918 285.199C97.8164 285.941 98.2656 286.891 98.2656 288.047H96.0859C96.0859 287.453 95.832 286.941 95.3242 286.512C94.8242 286.082 94.1914 285.867 93.4258 285.867C92.6367 285.867 92.0195 286.039 91.5742 286.383C91.1289 286.727 90.9062 287.176 90.9062 287.73C90.9062 288.254 91.1133 288.648 91.5273 288.914C91.9414 289.18 92.6875 289.434 93.7656 289.676C94.8516 289.918 95.7305 290.207 96.4023 290.543C97.0742 290.879 97.5703 291.285 97.8906 291.762C98.2188 292.23 98.3828 292.805 98.3828 293.484C98.3828 294.617 97.9297 295.527 97.0234 296.215C96.1172 296.895 94.9414 297.234 93.4961 297.234C92.4805 297.234 91.582 297.055 90.8008 296.695C90.0195 296.336 89.4062 295.836 88.9609 295.195C88.5234 294.547 88.3047 293.848 88.3047 293.098H90.4727C90.5117 293.824 90.8008 294.402 91.3398 294.832C91.8867 295.254 92.6055 295.465 93.4961 295.465C94.3164 295.465 94.9727 295.301 95.4648 294.973C95.9648 294.637 96.2148 294.191 96.2148 293.637ZM109.035 295.746C108.191 296.738 106.953 297.234 105.32 297.234C103.969 297.234 102.938 296.844 102.227 296.062C101.523 295.273 101.168 294.109 101.16 292.57V284.32H103.328V292.512C103.328 294.434 104.109 295.395 105.672 295.395C107.328 295.395 108.43 294.777 108.977 293.543V284.32H111.145V297H109.082L109.035 295.746ZM117.988 291.129L116.629 292.547V297H114.461V279H116.629V289.887L117.789 288.492L121.738 284.32H124.375L119.441 289.617L124.949 297H122.406L117.988 291.129Z" fill="black"/>
<rect y="396" width="200" height="50" fill="#70A8DC"/>
<path d="M76.9023 421.113H69.5078V427.16H78.0977V429H67.2578V411.938H77.9805V413.789H69.5078V419.273H76.9023V421.113ZM81.4141 429V417.996H79.4102V416.32H81.4141V415.02C81.4141 413.66 81.7773 412.609 82.5039 411.867C83.2305 411.125 84.2578 410.754 85.5859 410.754C86.0859 410.754 86.582 410.82 87.0742 410.953L86.957 412.711C86.5898 412.641 86.1992 412.605 85.7852 412.605C85.082 412.605 84.5391 412.812 84.1562 413.227C83.7734 413.633 83.582 414.219 83.582 414.984V416.32H86.2891V417.996H83.582V429H81.4141ZM89.7578 429V417.996H87.7539V416.32H89.7578V415.02C89.7578 413.66 90.1211 412.609 90.8477 411.867C91.5742 411.125 92.6016 410.754 93.9297 410.754C94.4297 410.754 94.9258 410.82 95.418 410.953L95.3008 412.711C94.9336 412.641 94.543 412.605 94.1289 412.605C93.4258 412.605 92.8828 412.812 92.5 413.227C92.1172 413.633 91.9258 414.219 91.9258 414.984V416.32H94.6328V417.996H91.9258V429H89.7578ZM102.016 429.234C100.297 429.234 98.8984 428.672 97.8203 427.547C96.7422 426.414 96.2031 424.902 96.2031 423.012V422.613C96.2031 421.355 96.4414 420.234 96.918 419.25C97.4023 418.258 98.0742 417.484 98.9336 416.93C99.8008 416.367 100.738 416.086 101.746 416.086C103.395 416.086 104.676 416.629 105.59 417.715C106.504 418.801 106.961 420.355 106.961 422.379V423.281H98.3711C98.4023 424.531 98.7656 425.543 99.4609 426.316C100.164 427.082 101.055 427.465 102.133 427.465C102.898 427.465 103.547 427.309 104.078 426.996C104.609 426.684 105.074 426.27 105.473 425.754L106.797 426.785C105.734 428.418 104.141 429.234 102.016 429.234ZM101.746 417.867C100.871 417.867 100.137 418.188 99.543 418.828C98.9492 419.461 98.582 420.352 98.4414 421.5H104.793V421.336C104.73 420.234 104.434 419.383 103.902 418.781C103.371 418.172 102.652 417.867 101.746 417.867ZM114.566 427.465C115.34 427.465 116.016 427.23 116.594 426.762C117.172 426.293 117.492 425.707 117.555 425.004H119.605C119.566 425.73 119.316 426.422 118.855 427.078C118.395 427.734 117.777 428.258 117.004 428.648C116.238 429.039 115.426 429.234 114.566 429.234C112.84 429.234 111.465 428.66 110.441 427.512C109.426 426.355 108.918 424.777 108.918 422.777V422.414C108.918 421.18 109.145 420.082 109.598 419.121C110.051 418.16 110.699 417.414 111.543 416.883C112.395 416.352 113.398 416.086 114.555 416.086C115.977 416.086 117.156 416.512 118.094 417.363C119.039 418.215 119.543 419.32 119.605 420.68H117.555C117.492 419.859 117.18 419.188 116.617 418.664C116.062 418.133 115.375 417.867 114.555 417.867C113.453 417.867 112.598 418.266 111.988 419.062C111.387 419.852 111.086 420.996 111.086 422.496V422.906C111.086 424.367 111.387 425.492 111.988 426.281C112.59 427.07 113.449 427.465 114.566 427.465ZM134.172 413.789H128.688V429H126.449V413.789H120.977V411.938H134.172V413.789Z" fill="black"/>
<rect y="528" width="200" height="50" fill="#70A8DC"/>
<path d="M83.2383 561H80.9766V553.113H72.375V561H70.125V543.938H72.375V551.273H80.9766V543.938H83.2383V561ZM94.7227 561C94.5977 560.75 94.4961 560.305 94.418 559.664C93.4102 560.711 92.207 561.234 90.8086 561.234C89.5586 561.234 88.5312 560.883 87.7266 560.18C86.9297 559.469 86.5312 558.57 86.5312 557.484C86.5312 556.164 87.0312 555.141 88.0312 554.414C89.0391 553.68 90.4531 553.312 92.2734 553.312H94.3828V552.316C94.3828 551.559 94.1562 550.957 93.7031 550.512C93.25 550.059 92.582 549.832 91.6992 549.832C90.9258 549.832 90.2773 550.027 89.7539 550.418C89.2305 550.809 88.9688 551.281 88.9688 551.836H86.7891C86.7891 551.203 87.0117 550.594 87.457 550.008C87.9102 549.414 88.5195 548.945 89.2852 548.602C90.0586 548.258 90.9062 548.086 91.8281 548.086C93.2891 548.086 94.4336 548.453 95.2617 549.188C96.0898 549.914 96.5195 550.918 96.5508 552.199V558.035C96.5508 559.199 96.6992 560.125 96.9961 560.812V561H94.7227ZM91.125 559.348C91.8047 559.348 92.4492 559.172 93.0586 558.82C93.668 558.469 94.1094 558.012 94.3828 557.449V554.848H92.6836C90.0273 554.848 88.6992 555.625 88.6992 557.18C88.6992 557.859 88.9258 558.391 89.3789 558.773C89.832 559.156 90.4141 559.348 91.125 559.348ZM102.891 545.25V548.32H105.258V549.996H102.891V557.859C102.891 558.367 102.996 558.75 103.207 559.008C103.418 559.258 103.777 559.383 104.285 559.383C104.535 559.383 104.879 559.336 105.316 559.242V561C104.746 561.156 104.191 561.234 103.652 561.234C102.684 561.234 101.953 560.941 101.461 560.355C100.969 559.77 100.723 558.938 100.723 557.859V549.996H98.4141V548.32H100.723V545.25H102.891ZM106.992 554.543C106.992 553.301 107.234 552.184 107.719 551.191C108.211 550.199 108.891 549.434 109.758 548.895C110.633 548.355 111.629 548.086 112.746 548.086C114.473 548.086 115.867 548.684 116.93 549.879C118 551.074 118.535 552.664 118.535 554.648V554.801C118.535 556.035 118.297 557.145 117.82 558.129C117.352 559.105 116.676 559.867 115.793 560.414C114.918 560.961 113.91 561.234 112.77 561.234C111.051 561.234 109.656 560.637 108.586 559.441C107.523 558.246 106.992 556.664 106.992 554.695V554.543ZM109.172 554.801C109.172 556.207 109.496 557.336 110.145 558.188C110.801 559.039 111.676 559.465 112.77 559.465C113.871 559.465 114.746 559.035 115.395 558.176C116.043 557.309 116.367 556.098 116.367 554.543C116.367 553.152 116.035 552.027 115.371 551.168C114.715 550.301 113.84 549.867 112.746 549.867C111.676 549.867 110.812 550.293 110.156 551.145C109.5 551.996 109.172 553.215 109.172 554.801ZM123.305 548.32L123.375 549.914C124.344 548.695 125.609 548.086 127.172 548.086C129.852 548.086 131.203 549.598 131.227 552.621V561H129.059V552.609C129.051 551.695 128.84 551.02 128.426 550.582C128.02 550.145 127.383 549.926 126.516 549.926C125.812 549.926 125.195 550.113 124.664 550.488C124.133 550.863 123.719 551.355 123.422 551.965V561H121.254V548.32H123.305Z" fill="black"/>
<rect y="660" width="200" height="50" fill="#70A8DC"/>
<path d="M78.6367 690.012L83.5117 675.938H85.9727L79.6445 693H77.6523L71.3359 675.938H73.7852L78.6367 690.012ZM98.4062 685.723C98.4062 688.262 97.9727 690.148 97.1055 691.383C96.2383 692.617 94.8828 693.234 93.0391 693.234C91.2188 693.234 89.8711 692.633 88.9961 691.43C88.1211 690.219 87.668 688.414 87.6367 686.016V683.121C87.6367 680.613 88.0703 678.75 88.9375 677.531C89.8047 676.312 91.1641 675.703 93.0156 675.703C94.8516 675.703 96.2031 676.293 97.0703 677.473C97.9375 678.645 98.3828 680.457 98.4062 682.91V685.723ZM96.2383 682.758C96.2383 680.922 95.9805 679.586 95.4648 678.75C94.9492 677.906 94.1328 677.484 93.0156 677.484C91.9062 677.484 91.0977 677.902 90.5898 678.738C90.082 679.574 89.8203 680.859 89.8047 682.594V686.062C89.8047 687.906 90.0703 689.27 90.6016 690.152C91.1406 691.027 91.9531 691.465 93.0391 691.465C94.1094 691.465 94.9023 691.051 95.418 690.223C95.9414 689.395 96.2148 688.09 96.2383 686.309V682.758ZM108.309 693H106.129V678.551L101.758 680.156V678.188L107.969 675.855H108.309V693ZM115.223 693V675.938H120.039C121.523 675.938 122.836 676.266 123.977 676.922C125.117 677.578 125.996 678.512 126.613 679.723C127.238 680.934 127.555 682.324 127.562 683.895V684.984C127.562 686.594 127.25 688.004 126.625 689.215C126.008 690.426 125.121 691.355 123.965 692.004C122.816 692.652 121.477 692.984 119.945 693H115.223ZM117.473 677.789V691.16H119.84C121.574 691.16 122.922 690.621 123.883 689.543C124.852 688.465 125.336 686.93 125.336 684.938V683.941C125.336 682.004 124.879 680.5 123.965 679.43C123.059 678.352 121.77 677.805 120.098 677.789H117.473Z" fill="black"/>
<rect y="792" width="200" height="50" fill="#70A8DC"/>
<path d="M86.7773 809.789H81.293V825H79.0547V809.789H73.582V807.938H86.7773V809.789ZM101.32 807.938V819.539C101.312 821.148 100.805 822.465 99.7969 823.488C98.7969 824.512 97.4375 825.086 95.7188 825.211L95.1211 825.234C93.2539 825.234 91.7656 824.73 90.6562 823.723C89.5469 822.715 88.9844 821.328 88.9688 819.562V807.938H91.1953V819.492C91.1953 820.727 91.5352 821.688 92.2148 822.375C92.8945 823.055 93.8633 823.395 95.1211 823.395C96.3945 823.395 97.3672 823.055 98.0391 822.375C98.7188 821.695 99.0586 820.738 99.0586 819.504V807.938H101.32ZM108.715 822.059L111.855 812.32H114.07L109.523 825H107.871L103.277 812.32H105.492L108.715 822.059ZM125.086 819.27H127.453V821.039H125.086V825H122.906V821.039H115.137V819.762L122.777 807.938H125.086V819.27ZM117.598 819.27H122.906V810.902L122.648 811.371L117.598 819.27Z" fill="black"/>
<rect y="924" width="200" height="50" fill="#70A8DC"/>
<path d="M77.0781 955.16H86.8398V957H74.418V955.312L83.7695 941.789H74.5703V939.938H86.4648V941.59L77.0781 955.16ZM94.4219 957.234C92.7031 957.234 91.3047 956.672 90.2266 955.547C89.1484 954.414 88.6094 952.902 88.6094 951.012V950.613C88.6094 949.355 88.8477 948.234 89.3242 947.25C89.8086 946.258 90.4805 945.484 91.3398 944.93C92.207 944.367 93.1445 944.086 94.1523 944.086C95.8008 944.086 97.082 944.629 97.9961 945.715C98.9102 946.801 99.3672 948.355 99.3672 950.379V951.281H90.7773C90.8086 952.531 91.1719 953.543 91.8672 954.316C92.5703 955.082 93.4609 955.465 94.5391 955.465C95.3047 955.465 95.9531 955.309 96.4844 954.996C97.0156 954.684 97.4805 954.27 97.8789 953.754L99.2031 954.785C98.1406 956.418 96.5469 957.234 94.4219 957.234ZM94.1523 945.867C93.2773 945.867 92.543 946.188 91.9492 946.828C91.3555 947.461 90.9883 948.352 90.8477 949.5H97.1992V949.336C97.1367 948.234 96.8398 947.383 96.3086 946.781C95.7773 946.172 95.0586 945.867 94.1523 945.867ZM102.613 957V945.996H100.609V944.32H102.613V943.242C102.613 941.828 103.016 940.727 103.82 939.938C104.633 939.148 105.777 938.754 107.254 938.754C108.129 938.754 109.234 938.992 110.57 939.469L110.207 941.297C109.23 940.906 108.301 940.711 107.418 940.711C106.488 940.711 105.816 940.922 105.402 941.344C104.996 941.758 104.793 942.383 104.793 943.219V944.32H107.383V945.996H104.793V957H102.613ZM111.648 957H109.469V944.32H111.648V957ZM123.004 957C122.879 956.75 122.777 956.305 122.699 955.664C121.691 956.711 120.488 957.234 119.09 957.234C117.84 957.234 116.812 956.883 116.008 956.18C115.211 955.469 114.812 954.57 114.812 953.484C114.812 952.164 115.312 951.141 116.312 950.414C117.32 949.68 118.734 949.312 120.555 949.312H122.664V948.316C122.664 947.559 122.438 946.957 121.984 946.512C121.531 946.059 120.863 945.832 119.98 945.832C119.207 945.832 118.559 946.027 118.035 946.418C117.512 946.809 117.25 947.281 117.25 947.836H115.07C115.07 947.203 115.293 946.594 115.738 946.008C116.191 945.414 116.801 944.945 117.566 944.602C118.34 944.258 119.188 944.086 120.109 944.086C121.57 944.086 122.715 944.453 123.543 945.188C124.371 945.914 124.801 946.918 124.832 948.199V954.035C124.832 955.199 124.98 956.125 125.277 956.812V957H123.004ZM119.406 955.348C120.086 955.348 120.73 955.172 121.34 954.82C121.949 954.469 122.391 954.012 122.664 953.449V950.848H120.965C118.309 950.848 116.98 951.625 116.98 953.18C116.98 953.859 117.207 954.391 117.66 954.773C118.113 955.156 118.695 955.348 119.406 955.348Z" fill="black"/>
<rect y="52" width="200" height="50" fill="#70A8DC"/>
<path d="M74.1719 67.9375L79.75 81.8594L85.3281 67.9375H88.2461V85H85.9961V78.3555L86.207 71.1836L80.6055 85H78.8828L73.293 71.2188L73.5156 78.3555V85H71.2656V67.9375H74.1719ZM91.3047 78.543C91.3047 77.3008 91.5469 76.1836 92.0312 75.1914C92.5234 74.1992 93.2031 73.4336 94.0703 72.8945C94.9453 72.3555 95.9414 72.0859 97.0586 72.0859C98.7852 72.0859 100.18 72.6836 101.242 73.8789C102.312 75.0742 102.848 76.6641 102.848 78.6484V78.8008C102.848 80.0352 102.609 81.1445 102.133 82.1289C101.664 83.1055 100.988 83.8672 100.105 84.4141C99.2305 84.9609 98.2227 85.2344 97.082 85.2344C95.3633 85.2344 93.9688 84.6367 92.8984 83.4414C91.8359 82.2461 91.3047 80.6641 91.3047 78.6953V78.543ZM93.4844 78.8008C93.4844 80.207 93.8086 81.3359 94.457 82.1875C95.1133 83.0391 95.9883 83.4648 97.082 83.4648C98.1836 83.4648 99.0586 83.0352 99.707 82.1758C100.355 81.3086 100.68 80.0977 100.68 78.543C100.68 77.1523 100.348 76.0273 99.6836 75.168C99.0273 74.3008 98.1523 73.8672 97.0586 73.8672C95.9883 73.8672 95.125 74.293 94.4688 75.1445C93.8125 75.9961 93.4844 77.2148 93.4844 78.8008ZM107.617 72.3203L107.688 73.9141C108.656 72.6953 109.922 72.0859 111.484 72.0859C114.164 72.0859 115.516 73.5977 115.539 76.6211V85H113.371V76.6094C113.363 75.6953 113.152 75.0195 112.738 74.582C112.332 74.1445 111.695 73.9258 110.828 73.9258C110.125 73.9258 109.508 74.1133 108.977 74.4883C108.445 74.8633 108.031 75.3555 107.734 75.9648V85H105.566V72.3203H107.617ZM118.281 78.5547C118.281 76.6094 118.742 75.0469 119.664 73.8672C120.586 72.6797 121.793 72.0859 123.285 72.0859C124.77 72.0859 125.945 72.5938 126.812 73.6094V67H128.98V85H126.988L126.883 83.6406C126.016 84.7031 124.809 85.2344 123.262 85.2344C121.793 85.2344 120.594 84.6328 119.664 83.4297C118.742 82.2266 118.281 80.6562 118.281 78.7188V78.5547ZM120.449 78.8008C120.449 80.2383 120.746 81.3633 121.34 82.1758C121.934 82.9883 122.754 83.3945 123.801 83.3945C125.176 83.3945 126.18 82.7773 126.812 81.543V75.7188C126.164 74.5234 125.168 73.9258 123.824 73.9258C122.762 73.9258 121.934 74.3359 121.34 75.1562C120.746 75.9766 120.449 77.1914 120.449 78.8008Z" fill="black"/>
<rect x="260" y="120" width="200" height="50" fill="#70A8DC"/>
<path d="M338.492 148.547H331.344L329.738 153H327.418L333.934 135.938H335.902L342.43 153H340.121L338.492 148.547ZM332.023 146.695H337.824L334.918 138.715L332.023 146.695ZM350.516 142.266C350.188 142.211 349.832 142.184 349.449 142.184C348.027 142.184 347.062 142.789 346.555 144V153H344.387V140.32H346.496L346.531 141.785C347.242 140.652 348.25 140.086 349.555 140.086C349.977 140.086 350.297 140.141 350.516 140.25V142.266ZM356.047 137.25V140.32H358.414V141.996H356.047V149.859C356.047 150.367 356.152 150.75 356.363 151.008C356.574 151.258 356.934 151.383 357.441 151.383C357.691 151.383 358.035 151.336 358.473 151.242V153C357.902 153.156 357.348 153.234 356.809 153.234C355.84 153.234 355.109 152.941 354.617 152.355C354.125 151.77 353.879 150.938 353.879 149.859V141.996H351.57V140.32H353.879V137.25H356.047ZM363.125 141.855C364.086 140.676 365.336 140.086 366.875 140.086C369.555 140.086 370.906 141.598 370.93 144.621V153H368.762V144.609C368.754 143.695 368.543 143.02 368.129 142.582C367.723 142.145 367.086 141.926 366.219 141.926C365.516 141.926 364.898 142.113 364.367 142.488C363.836 142.863 363.422 143.355 363.125 143.965V153H360.957V135H363.125V141.855ZM382.004 151.746C381.16 152.738 379.922 153.234 378.289 153.234C376.938 153.234 375.906 152.844 375.195 152.062C374.492 151.273 374.137 150.109 374.129 148.57V140.32H376.297V148.512C376.297 150.434 377.078 151.395 378.641 151.395C380.297 151.395 381.398 150.777 381.945 149.543V140.32H384.113V153H382.051L382.004 151.746ZM393.547 142.266C393.219 142.211 392.863 142.184 392.48 142.184C391.059 142.184 390.094 142.789 389.586 144V153H387.418V140.32H389.527L389.562 141.785C390.273 140.652 391.281 140.086 392.586 140.086C393.008 140.086 393.328 140.141 393.547 140.25V142.266Z" fill="black"/>
<rect x="520" y="239" width="200" height="50" fill="#70A8DC"/>
<path d="M599.023 272H596.855V259.32H599.023V272ZM596.68 255.957C596.68 255.605 596.785 255.309 596.996 255.066C597.215 254.824 597.535 254.703 597.957 254.703C598.379 254.703 598.699 254.824 598.918 255.066C599.137 255.309 599.246 255.605 599.246 255.957C599.246 256.309 599.137 256.602 598.918 256.836C598.699 257.07 598.379 257.188 597.957 257.188C597.535 257.188 597.215 257.07 596.996 256.836C596.785 256.602 596.68 256.309 596.68 255.957ZM602.551 270.863C602.551 270.488 602.66 270.176 602.879 269.926C603.105 269.676 603.441 269.551 603.887 269.551C604.332 269.551 604.668 269.676 604.895 269.926C605.129 270.176 605.246 270.488 605.246 270.863C605.246 271.223 605.129 271.523 604.895 271.766C604.668 272.008 604.332 272.129 603.887 272.129C603.441 272.129 603.105 272.008 602.879 271.766C602.66 271.523 602.551 271.223 602.551 270.863ZM616.215 268.637C616.215 268.051 615.992 267.598 615.547 267.277C615.109 266.949 614.34 266.668 613.238 266.434C612.145 266.199 611.273 265.918 610.625 265.59C609.984 265.262 609.508 264.871 609.195 264.418C608.891 263.965 608.738 263.426 608.738 262.801C608.738 261.762 609.176 260.883 610.051 260.164C610.934 259.445 612.059 259.086 613.426 259.086C614.863 259.086 616.027 259.457 616.918 260.199C617.816 260.941 618.266 261.891 618.266 263.047H616.086C616.086 262.453 615.832 261.941 615.324 261.512C614.824 261.082 614.191 260.867 613.426 260.867C612.637 260.867 612.02 261.039 611.574 261.383C611.129 261.727 610.906 262.176 610.906 262.73C610.906 263.254 611.113 263.648 611.527 263.914C611.941 264.18 612.688 264.434 613.766 264.676C614.852 264.918 615.73 265.207 616.402 265.543C617.074 265.879 617.57 266.285 617.891 266.762C618.219 267.23 618.383 267.805 618.383 268.484C618.383 269.617 617.93 270.527 617.023 271.215C616.117 271.895 614.941 272.234 613.496 272.234C612.48 272.234 611.582 272.055 610.801 271.695C610.02 271.336 609.406 270.836 608.961 270.195C608.523 269.547 608.305 268.848 608.305 268.098H610.473C610.512 268.824 610.801 269.402 611.34 269.832C611.887 270.254 612.605 270.465 613.496 270.465C614.316 270.465 614.973 270.301 615.465 269.973C615.965 269.637 616.215 269.191 616.215 268.637ZM629.035 270.746C628.191 271.738 626.953 272.234 625.32 272.234C623.969 272.234 622.938 271.844 622.227 271.062C621.523 270.273 621.168 269.109 621.16 267.57V259.32H623.328V267.512C623.328 269.434 624.109 270.395 625.672 270.395C627.328 270.395 628.43 269.777 628.977 268.543V259.32H631.145V272H629.082L629.035 270.746ZM637.988 266.129L636.629 267.547V272H634.461V254H636.629V264.887L637.789 263.492L641.738 259.32H644.375L639.441 264.617L644.949 272H642.406L637.988 266.129Z" fill="black"/>
<rect x="520" y="775" width="200" height="50" fill="#70A8DC"/>
<path d="M596.277 808V790.938H601.855C603.707 790.938 605.098 791.32 606.027 792.086C606.965 792.852 607.434 793.984 607.434 795.484C607.434 796.281 607.207 796.988 606.754 797.605C606.301 798.215 605.684 798.688 604.902 799.023C605.824 799.281 606.551 799.773 607.082 800.5C607.621 801.219 607.891 802.078 607.891 803.078C607.891 804.609 607.395 805.812 606.402 806.688C605.41 807.562 604.008 808 602.195 808H596.277ZM598.527 800.02V806.16H602.242C603.289 806.16 604.113 805.891 604.715 805.352C605.324 804.805 605.629 804.055 605.629 803.102C605.629 801.047 604.512 800.02 602.277 800.02H598.527ZM598.527 798.215H601.926C602.91 798.215 603.695 797.969 604.281 797.477C604.875 796.984 605.172 796.316 605.172 795.473C605.172 794.535 604.898 793.855 604.352 793.434C603.805 793.004 602.973 792.789 601.855 792.789H598.527V798.215ZM616.152 808.234C614.434 808.234 613.035 807.672 611.957 806.547C610.879 805.414 610.34 803.902 610.34 802.012V801.613C610.34 800.355 610.578 799.234 611.055 798.25C611.539 797.258 612.211 796.484 613.07 795.93C613.938 795.367 614.875 795.086 615.883 795.086C617.531 795.086 618.812 795.629 619.727 796.715C620.641 797.801 621.098 799.355 621.098 801.379V802.281H612.508C612.539 803.531 612.902 804.543 613.598 805.316C614.301 806.082 615.191 806.465 616.27 806.465C617.035 806.465 617.684 806.309 618.215 805.996C618.746 805.684 619.211 805.27 619.609 804.754L620.934 805.785C619.871 807.418 618.277 808.234 616.152 808.234ZM615.883 796.867C615.008 796.867 614.273 797.188 613.68 797.828C613.086 798.461 612.719 799.352 612.578 800.5H618.93V800.336C618.867 799.234 618.57 798.383 618.039 797.781C617.508 797.172 616.789 796.867 615.883 796.867ZM628.703 806.465C629.477 806.465 630.152 806.23 630.73 805.762C631.309 805.293 631.629 804.707 631.691 804.004H633.742C633.703 804.73 633.453 805.422 632.992 806.078C632.531 806.734 631.914 807.258 631.141 807.648C630.375 808.039 629.562 808.234 628.703 808.234C626.977 808.234 625.602 807.66 624.578 806.512C623.562 805.355 623.055 803.777 623.055 801.777V801.414C623.055 800.18 623.281 799.082 623.734 798.121C624.188 797.16 624.836 796.414 625.68 795.883C626.531 795.352 627.535 795.086 628.691 795.086C630.113 795.086 631.293 795.512 632.23 796.363C633.176 797.215 633.68 798.32 633.742 799.68H631.691C631.629 798.859 631.316 798.188 630.754 797.664C630.199 797.133 629.512 796.867 628.691 796.867C627.59 796.867 626.734 797.266 626.125 798.062C625.523 798.852 625.223 799.996 625.223 801.496V801.906C625.223 803.367 625.523 804.492 626.125 805.281C626.727 806.07 627.586 806.465 628.703 806.465ZM639.719 802.129L638.359 803.547V808H636.191V790H638.359V800.887L639.52 799.492L643.469 795.32H646.105L641.172 800.617L646.68 808H644.137L639.719 802.129Z" fill="black"/>
<rect x="780" y="503" width="200" height="50" fill="#70A8DC"/>
<rect x="260" y="379" width="200" height="50" fill="#70A8DC"/>
<path d="M320.426 405.32V412H318.176V394.938H324.469C326.336 394.938 327.797 395.414 328.852 396.367C329.914 397.32 330.445 398.582 330.445 400.152C330.445 401.809 329.926 403.086 328.887 403.984C327.855 404.875 326.375 405.32 324.445 405.32H320.426ZM320.426 403.48H324.469C325.672 403.48 326.594 403.199 327.234 402.637C327.875 402.066 328.195 401.246 328.195 400.176C328.195 399.16 327.875 398.348 327.234 397.738C326.594 397.129 325.715 396.812 324.598 396.789H320.426V403.48ZM340.664 412C340.539 411.75 340.438 411.305 340.359 410.664C339.352 411.711 338.148 412.234 336.75 412.234C335.5 412.234 334.473 411.883 333.668 411.18C332.871 410.469 332.473 409.57 332.473 408.484C332.473 407.164 332.973 406.141 333.973 405.414C334.98 404.68 336.395 404.312 338.215 404.312H340.324V403.316C340.324 402.559 340.098 401.957 339.645 401.512C339.191 401.059 338.523 400.832 337.641 400.832C336.867 400.832 336.219 401.027 335.695 401.418C335.172 401.809 334.91 402.281 334.91 402.836H332.73C332.73 402.203 332.953 401.594 333.398 401.008C333.852 400.414 334.461 399.945 335.227 399.602C336 399.258 336.848 399.086 337.77 399.086C339.23 399.086 340.375 399.453 341.203 400.188C342.031 400.914 342.461 401.918 342.492 403.199V409.035C342.492 410.199 342.641 411.125 342.938 411.812V412H340.664ZM337.066 410.348C337.746 410.348 338.391 410.172 339 409.82C339.609 409.469 340.051 409.012 340.324 408.449V405.848H338.625C335.969 405.848 334.641 406.625 334.641 408.18C334.641 408.859 334.867 409.391 335.32 409.773C335.773 410.156 336.355 410.348 337.066 410.348ZM345.363 405.555C345.363 403.609 345.824 402.047 346.746 400.867C347.668 399.68 348.875 399.086 350.367 399.086C351.852 399.086 353.027 399.594 353.895 400.609V394H356.062V412H354.07L353.965 410.641C353.098 411.703 351.891 412.234 350.344 412.234C348.875 412.234 347.676 411.633 346.746 410.43C345.824 409.227 345.363 407.656 345.363 405.719V405.555ZM347.531 405.801C347.531 407.238 347.828 408.363 348.422 409.176C349.016 409.988 349.836 410.395 350.883 410.395C352.258 410.395 353.262 409.777 353.895 408.543V402.719C353.246 401.523 352.25 400.926 350.906 400.926C349.844 400.926 349.016 401.336 348.422 402.156C347.828 402.977 347.531 404.191 347.531 405.801ZM365.566 401.266C365.238 401.211 364.883 401.184 364.5 401.184C363.078 401.184 362.113 401.789 361.605 403V412H359.438V399.32H361.547L361.582 400.785C362.293 399.652 363.301 399.086 364.605 399.086C365.027 399.086 365.348 399.141 365.566 399.25V401.266ZM374.93 412C374.805 411.75 374.703 411.305 374.625 410.664C373.617 411.711 372.414 412.234 371.016 412.234C369.766 412.234 368.738 411.883 367.934 411.18C367.137 410.469 366.738 409.57 366.738 408.484C366.738 407.164 367.238 406.141 368.238 405.414C369.246 404.68 370.66 404.312 372.48 404.312H374.59V403.316C374.59 402.559 374.363 401.957 373.91 401.512C373.457 401.059 372.789 400.832 371.906 400.832C371.133 400.832 370.484 401.027 369.961 401.418C369.438 401.809 369.176 402.281 369.176 402.836H366.996C366.996 402.203 367.219 401.594 367.664 401.008C368.117 400.414 368.727 399.945 369.492 399.602C370.266 399.258 371.113 399.086 372.035 399.086C373.496 399.086 374.641 399.453 375.469 400.188C376.297 400.914 376.727 401.918 376.758 403.199V409.035C376.758 410.199 376.906 411.125 377.203 411.812V412H374.93ZM371.332 410.348C372.012 410.348 372.656 410.172 373.266 409.82C373.875 409.469 374.316 409.012 374.59 408.449V405.848H372.891C370.234 405.848 368.906 406.625 368.906 408.18C368.906 408.859 369.133 409.391 369.586 409.773C370.039 410.156 370.621 410.348 371.332 410.348ZM385.242 410.465C386.016 410.465 386.691 410.23 387.27 409.762C387.848 409.293 388.168 408.707 388.23 408.004H390.281C390.242 408.73 389.992 409.422 389.531 410.078C389.07 410.734 388.453 411.258 387.68 411.648C386.914 412.039 386.102 412.234 385.242 412.234C383.516 412.234 382.141 411.66 381.117 410.512C380.102 409.355 379.594 407.777 379.594 405.777V405.414C379.594 404.18 379.82 403.082 380.273 402.121C380.727 401.16 381.375 400.414 382.219 399.883C383.07 399.352 384.074 399.086 385.23 399.086C386.652 399.086 387.832 399.512 388.77 400.363C389.715 401.215 390.219 402.32 390.281 403.68H388.23C388.168 402.859 387.855 402.188 387.293 401.664C386.738 401.133 386.051 400.867 385.23 400.867C384.129 400.867 383.273 401.266 382.664 402.062C382.062 402.852 381.762 403.996 381.762 405.496V405.906C381.762 407.367 382.062 408.492 382.664 409.281C383.266 410.07 384.125 410.465 385.242 410.465ZM397.98 412.234C396.262 412.234 394.863 411.672 393.785 410.547C392.707 409.414 392.168 407.902 392.168 406.012V405.613C392.168 404.355 392.406 403.234 392.883 402.25C393.367 401.258 394.039 400.484 394.898 399.93C395.766 399.367 396.703 399.086 397.711 399.086C399.359 399.086 400.641 399.629 401.555 400.715C402.469 401.801 402.926 403.355 402.926 405.379V406.281H394.336C394.367 407.531 394.73 408.543 395.426 409.316C396.129 410.082 397.02 410.465 398.098 410.465C398.863 410.465 399.512 410.309 400.043 409.996C400.574 409.684 401.039 409.27 401.438 408.754L402.762 409.785C401.699 411.418 400.105 412.234 397.98 412.234ZM397.711 400.867C396.836 400.867 396.102 401.188 395.508 401.828C394.914 402.461 394.547 403.352 394.406 404.5H400.758V404.336C400.695 403.234 400.398 402.383 399.867 401.781C399.336 401.172 398.617 400.867 397.711 400.867Z" fill="black"/>
<rect x="260" y="643" width="200" height="50" fill="#70A8DC"/>
<path d="M338.637 673.012L343.512 658.938H345.973L339.645 676H337.652L331.336 658.938H333.785L338.637 673.012ZM358.406 668.723C358.406 671.262 357.973 673.148 357.105 674.383C356.238 675.617 354.883 676.234 353.039 676.234C351.219 676.234 349.871 675.633 348.996 674.43C348.121 673.219 347.668 671.414 347.637 669.016V666.121C347.637 663.613 348.07 661.75 348.938 660.531C349.805 659.312 351.164 658.703 353.016 658.703C354.852 658.703 356.203 659.293 357.07 660.473C357.938 661.645 358.383 663.457 358.406 665.91V668.723ZM356.238 665.758C356.238 663.922 355.98 662.586 355.465 661.75C354.949 660.906 354.133 660.484 353.016 660.484C351.906 660.484 351.098 660.902 350.59 661.738C350.082 662.574 349.82 663.859 349.805 665.594V669.062C349.805 670.906 350.07 672.27 350.602 673.152C351.141 674.027 351.953 674.465 353.039 674.465C354.109 674.465 354.902 674.051 355.418 673.223C355.941 672.395 356.215 671.09 356.238 669.309V665.758ZM368.309 676H366.129V661.551L361.758 663.156V661.188L367.969 658.855H368.309V676ZM375.223 676V658.938H380.039C381.523 658.938 382.836 659.266 383.977 659.922C385.117 660.578 385.996 661.512 386.613 662.723C387.238 663.934 387.555 665.324 387.562 666.895V667.984C387.562 669.594 387.25 671.004 386.625 672.215C386.008 673.426 385.121 674.355 383.965 675.004C382.816 675.652 381.477 675.984 379.945 676H375.223ZM377.473 660.789V674.16H379.84C381.574 674.16 382.922 673.621 383.883 672.543C384.852 671.465 385.336 669.93 385.336 667.938V666.941C385.336 665.004 384.879 663.5 383.965 662.43C383.059 661.352 381.77 660.805 380.098 660.789H377.473Z" fill="black"/>
<rect x="260" y="907" width="200" height="50" fill="#70A8DC"/>
<path d="M337.078 938.16H346.84V940H334.418V938.312L343.77 924.789H334.57V922.938H346.465V924.59L337.078 938.16ZM354.422 940.234C352.703 940.234 351.305 939.672 350.227 938.547C349.148 937.414 348.609 935.902 348.609 934.012V933.613C348.609 932.355 348.848 931.234 349.324 930.25C349.809 929.258 350.48 928.484 351.34 927.93C352.207 927.367 353.145 927.086 354.152 927.086C355.801 927.086 357.082 927.629 357.996 928.715C358.91 929.801 359.367 931.355 359.367 933.379V934.281H350.777C350.809 935.531 351.172 936.543 351.867 937.316C352.57 938.082 353.461 938.465 354.539 938.465C355.305 938.465 355.953 938.309 356.484 937.996C357.016 937.684 357.48 937.27 357.879 936.754L359.203 937.785C358.141 939.418 356.547 940.234 354.422 940.234ZM354.152 928.867C353.277 928.867 352.543 929.188 351.949 929.828C351.355 930.461 350.988 931.352 350.848 932.5H357.199V932.336C357.137 931.234 356.84 930.383 356.309 929.781C355.777 929.172 355.059 928.867 354.152 928.867ZM362.613 940V928.996H360.609V927.32H362.613V926.242C362.613 924.828 363.016 923.727 363.82 922.938C364.633 922.148 365.777 921.754 367.254 921.754C368.129 921.754 369.234 921.992 370.57 922.469L370.207 924.297C369.23 923.906 368.301 923.711 367.418 923.711C366.488 923.711 365.816 923.922 365.402 924.344C364.996 924.758 364.793 925.383 364.793 926.219V927.32H367.383V928.996H364.793V940H362.613ZM371.648 940H369.469V927.32H371.648V940ZM383.004 940C382.879 939.75 382.777 939.305 382.699 938.664C381.691 939.711 380.488 940.234 379.09 940.234C377.84 940.234 376.812 939.883 376.008 939.18C375.211 938.469 374.812 937.57 374.812 936.484C374.812 935.164 375.312 934.141 376.312 933.414C377.32 932.68 378.734 932.312 380.555 932.312H382.664V931.316C382.664 930.559 382.438 929.957 381.984 929.512C381.531 929.059 380.863 928.832 379.98 928.832C379.207 928.832 378.559 929.027 378.035 929.418C377.512 929.809 377.25 930.281 377.25 930.836H375.07C375.07 930.203 375.293 929.594 375.738 929.008C376.191 928.414 376.801 927.945 377.566 927.602C378.34 927.258 379.188 927.086 380.109 927.086C381.57 927.086 382.715 927.453 383.543 928.188C384.371 928.914 384.801 929.918 384.832 931.199V937.035C384.832 938.199 384.98 939.125 385.277 939.812V940H383.004ZM379.406 938.348C380.086 938.348 380.73 938.172 381.34 937.82C381.949 937.469 382.391 937.012 382.664 936.449V933.848H380.965C378.309 933.848 376.98 934.625 376.98 936.18C376.98 936.859 377.207 937.391 377.66 937.773C378.113 938.156 378.695 938.348 379.406 938.348Z" fill="black"/>
<rect y="184" width="200" height="50" fill="#70A8DC"/>
<path d="M78.4922 212.547H71.3438L69.7383 217H67.418L73.9336 199.938H75.9023L82.4297 217H80.1211L78.4922 212.547ZM72.0234 210.695H77.8242L74.918 202.715L72.0234 210.695ZM90.5156 206.266C90.1875 206.211 89.832 206.184 89.4492 206.184C88.0273 206.184 87.0625 206.789 86.5547 208V217H84.3867V204.32H86.4961L86.5312 205.785C87.2422 204.652 88.25 204.086 89.5547 204.086C89.9766 204.086 90.2969 204.141 90.5156 204.25V206.266ZM96.0469 201.25V204.32H98.4141V205.996H96.0469V213.859C96.0469 214.367 96.1523 214.75 96.3633 215.008C96.5742 215.258 96.9336 215.383 97.4414 215.383C97.6914 215.383 98.0352 215.336 98.4727 215.242V217C97.9023 217.156 97.3477 217.234 96.8086 217.234C95.8398 217.234 95.1094 216.941 94.6172 216.355C94.125 215.77 93.8789 214.938 93.8789 213.859V205.996H91.5703V204.32H93.8789V201.25H96.0469ZM103.125 205.855C104.086 204.676 105.336 204.086 106.875 204.086C109.555 204.086 110.906 205.598 110.93 208.621V217H108.762V208.609C108.754 207.695 108.543 207.02 108.129 206.582C107.723 206.145 107.086 205.926 106.219 205.926C105.516 205.926 104.898 206.113 104.367 206.488C103.836 206.863 103.422 207.355 103.125 207.965V217H100.957V199H103.125V205.855ZM122.004 215.746C121.16 216.738 119.922 217.234 118.289 217.234C116.938 217.234 115.906 216.844 115.195 216.062C114.492 215.273 114.137 214.109 114.129 212.57V204.32H116.297V212.512C116.297 214.434 117.078 215.395 118.641 215.395C120.297 215.395 121.398 214.777 121.945 213.543V204.32H124.113V217H122.051L122.004 215.746ZM133.547 206.266C133.219 206.211 132.863 206.184 132.48 206.184C131.059 206.184 130.094 206.789 129.586 208V217H127.418V204.32H129.527L129.562 205.785C130.273 204.652 131.281 204.086 132.586 204.086C133.008 204.086 133.328 204.141 133.547 204.25V206.266Z" fill="black"/>
<rect y="316" width="200" height="50" fill="#70A8DC"/>
<path d="M58.0664 346.762C57.4883 347.59 56.6797 348.211 55.6406 348.625C54.6094 349.031 53.4062 349.234 52.0312 349.234C50.6406 349.234 49.4062 348.91 48.3281 348.262C47.25 347.605 46.4141 346.676 45.8203 345.473C45.2344 344.27 44.9336 342.875 44.918 341.289V339.801C44.918 337.23 45.5156 335.238 46.7109 333.824C47.9141 332.41 49.6016 331.703 51.7734 331.703C53.5547 331.703 54.9883 332.16 56.0742 333.074C57.1602 333.98 57.8242 335.27 58.0664 336.941H55.8164C55.3945 334.684 54.0508 333.555 51.7852 333.555C50.2773 333.555 49.1328 334.086 48.3516 335.148C47.5781 336.203 47.1875 337.734 47.1797 339.742V341.137C47.1797 343.051 47.6172 344.574 48.4922 345.707C49.3672 346.832 50.5508 347.395 52.043 347.395C52.8867 347.395 53.625 347.301 54.2578 347.113C54.8906 346.926 55.4141 346.609 55.8281 346.164V342.332H51.8789V340.504H58.0664V346.762ZM60.9141 342.543C60.9141 341.301 61.1562 340.184 61.6406 339.191C62.1328 338.199 62.8125 337.434 63.6797 336.895C64.5547 336.355 65.5508 336.086 66.668 336.086C68.3945 336.086 69.7891 336.684 70.8516 337.879C71.9219 339.074 72.457 340.664 72.457 342.648V342.801C72.457 344.035 72.2188 345.145 71.7422 346.129C71.2734 347.105 70.5977 347.867 69.7148 348.414C68.8398 348.961 67.832 349.234 66.6914 349.234C64.9727 349.234 63.5781 348.637 62.5078 347.441C61.4453 346.246 60.9141 344.664 60.9141 342.695V342.543ZM63.0938 342.801C63.0938 344.207 63.418 345.336 64.0664 346.188C64.7227 347.039 65.5977 347.465 66.6914 347.465C67.793 347.465 68.668 347.035 69.3164 346.176C69.9648 345.309 70.2891 344.098 70.2891 342.543C70.2891 341.152 69.957 340.027 69.293 339.168C68.6367 338.301 67.7617 337.867 66.668 337.867C65.5977 337.867 64.7344 338.293 64.0781 339.145C63.4219 339.996 63.0938 341.215 63.0938 342.801ZM77.5312 349H75.3633V331H77.5312V349ZM83.3672 349H81.1992V331H83.3672V349ZM94.6758 347.746C93.832 348.738 92.5938 349.234 90.9609 349.234C89.6094 349.234 88.5781 348.844 87.8672 348.062C87.1641 347.273 86.8086 346.109 86.8008 344.57V336.32H88.9688V344.512C88.9688 346.434 89.75 347.395 91.3125 347.395C92.9688 347.395 94.0703 346.777 94.6172 345.543V336.32H96.7852V349H94.7227L94.6758 347.746ZM102.129 336.32L102.188 337.727C103.117 336.633 104.371 336.086 105.949 336.086C107.723 336.086 108.93 336.766 109.57 338.125C109.992 337.516 110.539 337.023 111.211 336.648C111.891 336.273 112.691 336.086 113.613 336.086C116.395 336.086 117.809 337.559 117.855 340.504V349H115.688V340.633C115.688 339.727 115.48 339.051 115.066 338.605C114.652 338.152 113.957 337.926 112.98 337.926C112.176 337.926 111.508 338.168 110.977 338.652C110.445 339.129 110.137 339.773 110.051 340.586V349H107.871V340.691C107.871 338.848 106.969 337.926 105.164 337.926C103.742 337.926 102.77 338.531 102.246 339.742V349H100.078V336.32H102.129ZM128.52 345.637C128.52 345.051 128.297 344.598 127.852 344.277C127.414 343.949 126.645 343.668 125.543 343.434C124.449 343.199 123.578 342.918 122.93 342.59C122.289 342.262 121.812 341.871 121.5 341.418C121.195 340.965 121.043 340.426 121.043 339.801C121.043 338.762 121.48 337.883 122.355 337.164C123.238 336.445 124.363 336.086 125.73 336.086C127.168 336.086 128.332 336.457 129.223 337.199C130.121 337.941 130.57 338.891 130.57 340.047H128.391C128.391 339.453 128.137 338.941 127.629 338.512C127.129 338.082 126.496 337.867 125.73 337.867C124.941 337.867 124.324 338.039 123.879 338.383C123.434 338.727 123.211 339.176 123.211 339.73C123.211 340.254 123.418 340.648 123.832 340.914C124.246 341.18 124.992 341.434 126.07 341.676C127.156 341.918 128.035 342.207 128.707 342.543C129.379 342.879 129.875 343.285 130.195 343.762C130.523 344.23 130.688 344.805 130.688 345.484C130.688 346.617 130.234 347.527 129.328 348.215C128.422 348.895 127.246 349.234 125.801 349.234C124.785 349.234 123.887 349.055 123.105 348.695C122.324 348.336 121.711 347.836 121.266 347.195C120.828 346.547 120.609 345.848 120.609 345.098H122.777C122.816 345.824 123.105 346.402 123.645 346.832C124.191 347.254 124.91 347.465 125.801 347.465C126.621 347.465 127.277 347.301 127.77 346.973C128.27 346.637 128.52 346.191 128.52 345.637ZM137.051 343.129L135.691 344.547V349H133.523V331H135.691V341.887L136.852 340.492L140.801 336.32H143.438L138.504 341.617L144.012 349H141.469L137.051 343.129ZM155.801 336.391C155.801 337.242 155.574 338 155.121 338.664C154.676 339.328 154.07 339.848 153.305 340.223C154.195 340.605 154.898 341.164 155.414 341.898C155.938 342.633 156.199 343.465 156.199 344.395C156.199 345.871 155.699 347.047 154.699 347.922C153.707 348.797 152.398 349.234 150.773 349.234C149.133 349.234 147.816 348.797 146.824 347.922C145.84 347.039 145.348 345.863 145.348 344.395C145.348 343.473 145.598 342.641 146.098 341.898C146.605 341.156 147.305 340.594 148.195 340.211C147.438 339.836 146.84 339.316 146.402 338.652C145.965 337.988 145.746 337.234 145.746 336.391C145.746 334.953 146.207 333.812 147.129 332.969C148.051 332.125 149.266 331.703 150.773 331.703C152.273 331.703 153.484 332.125 154.406 332.969C155.336 333.812 155.801 334.953 155.801 336.391ZM154.031 344.348C154.031 343.395 153.727 342.617 153.117 342.016C152.516 341.414 151.727 341.113 150.75 341.113C149.773 341.113 148.988 341.41 148.395 342.004C147.809 342.598 147.516 343.379 147.516 344.348C147.516 345.316 147.801 346.078 148.371 346.633C148.949 347.188 149.75 347.465 150.773 347.465C151.789 347.465 152.586 347.188 153.164 346.633C153.742 346.07 154.031 345.309 154.031 344.348ZM150.773 333.484C149.922 333.484 149.23 333.75 148.699 334.281C148.176 334.805 147.914 335.52 147.914 336.426C147.914 337.293 148.172 337.996 148.688 338.535C149.211 339.066 149.906 339.332 150.773 339.332C151.641 339.332 152.332 339.066 152.848 338.535C153.371 337.996 153.633 337.293 153.633 336.426C153.633 335.559 153.363 334.852 152.824 334.305C152.285 333.758 151.602 333.484 150.773 333.484Z" fill="black"/>
<rect y="448" width="200" height="50" fill="#70A8DC"/>
<path d="M60.4258 474.32V481H58.1758V463.938H64.4688C66.3359 463.938 67.7969 464.414 68.8516 465.367C69.9141 466.32 70.4453 467.582 70.4453 469.152C70.4453 470.809 69.9258 472.086 68.8867 472.984C67.8555 473.875 66.375 474.32 64.4453 474.32H60.4258ZM60.4258 472.48H64.4688C65.6719 472.48 66.5938 472.199 67.2344 471.637C67.875 471.066 68.1953 470.246 68.1953 469.176C68.1953 468.16 67.875 467.348 67.2344 466.738C66.5938 466.129 65.7148 465.812 64.5977 465.789H60.4258V472.48ZM80.6641 481C80.5391 480.75 80.4375 480.305 80.3594 479.664C79.3516 480.711 78.1484 481.234 76.75 481.234C75.5 481.234 74.4727 480.883 73.668 480.18C72.8711 479.469 72.4727 478.57 72.4727 477.484C72.4727 476.164 72.9727 475.141 73.9727 474.414C74.9805 473.68 76.3945 473.312 78.2148 473.312H80.3242V472.316C80.3242 471.559 80.0977 470.957 79.6445 470.512C79.1914 470.059 78.5234 469.832 77.6406 469.832C76.8672 469.832 76.2188 470.027 75.6953 470.418C75.1719 470.809 74.9102 471.281 74.9102 471.836H72.7305C72.7305 471.203 72.9531 470.594 73.3984 470.008C73.8516 469.414 74.4609 468.945 75.2266 468.602C76 468.258 76.8477 468.086 77.7695 468.086C79.2305 468.086 80.375 468.453 81.2031 469.188C82.0312 469.914 82.4609 470.918 82.4922 472.199V478.035C82.4922 479.199 82.6406 480.125 82.9375 480.812V481H80.6641ZM77.0664 479.348C77.7461 479.348 78.3906 479.172 79 478.82C79.6094 478.469 80.0508 478.012 80.3242 477.449V474.848H78.625C75.9688 474.848 74.6406 475.625 74.6406 477.18C74.6406 477.859 74.8672 478.391 75.3203 478.773C75.7734 479.156 76.3555 479.348 77.0664 479.348ZM85.3633 474.555C85.3633 472.609 85.8242 471.047 86.7461 469.867C87.668 468.68 88.875 468.086 90.3672 468.086C91.8516 468.086 93.0273 468.594 93.8945 469.609V463H96.0625V481H94.0703L93.9648 479.641C93.0977 480.703 91.8906 481.234 90.3438 481.234C88.875 481.234 87.6758 480.633 86.7461 479.43C85.8242 478.227 85.3633 476.656 85.3633 474.719V474.555ZM87.5312 474.801C87.5312 476.238 87.8281 477.363 88.4219 478.176C89.0156 478.988 89.8359 479.395 90.8828 479.395C92.2578 479.395 93.2617 478.777 93.8945 477.543V471.719C93.2461 470.523 92.25 469.926 90.9062 469.926C89.8438 469.926 89.0156 470.336 88.4219 471.156C87.8281 471.977 87.5312 473.191 87.5312 474.801ZM105.566 470.266C105.238 470.211 104.883 470.184 104.5 470.184C103.078 470.184 102.113 470.789 101.605 472V481H99.4375V468.32H101.547L101.582 469.785C102.293 468.652 103.301 468.086 104.605 468.086C105.027 468.086 105.348 468.141 105.566 468.25V470.266ZM114.93 481C114.805 480.75 114.703 480.305 114.625 479.664C113.617 480.711 112.414 481.234 111.016 481.234C109.766 481.234 108.738 480.883 107.934 480.18C107.137 479.469 106.738 478.57 106.738 477.484C106.738 476.164 107.238 475.141 108.238 474.414C109.246 473.68 110.66 473.312 112.48 473.312H114.59V472.316C114.59 471.559 114.363 470.957 113.91 470.512C113.457 470.059 112.789 469.832 111.906 469.832C111.133 469.832 110.484 470.027 109.961 470.418C109.438 470.809 109.176 471.281 109.176 471.836H106.996C106.996 471.203 107.219 470.594 107.664 470.008C108.117 469.414 108.727 468.945 109.492 468.602C110.266 468.258 111.113 468.086 112.035 468.086C113.496 468.086 114.641 468.453 115.469 469.188C116.297 469.914 116.727 470.918 116.758 472.199V478.035C116.758 479.199 116.906 480.125 117.203 480.812V481H114.93ZM111.332 479.348C112.012 479.348 112.656 479.172 113.266 478.82C113.875 478.469 114.316 478.012 114.59 477.449V474.848H112.891C110.234 474.848 108.906 475.625 108.906 477.18C108.906 477.859 109.133 478.391 109.586 478.773C110.039 479.156 110.621 479.348 111.332 479.348ZM125.242 479.465C126.016 479.465 126.691 479.23 127.27 478.762C127.848 478.293 128.168 477.707 128.23 477.004H130.281C130.242 477.73 129.992 478.422 129.531 479.078C129.07 479.734 128.453 480.258 127.68 480.648C126.914 481.039 126.102 481.234 125.242 481.234C123.516 481.234 122.141 480.66 121.117 479.512C120.102 478.355 119.594 476.777 119.594 474.777V474.414C119.594 473.18 119.82 472.082 120.273 471.121C120.727 470.16 121.375 469.414 122.219 468.883C123.07 468.352 124.074 468.086 125.23 468.086C126.652 468.086 127.832 468.512 128.77 469.363C129.715 470.215 130.219 471.32 130.281 472.68H128.23C128.168 471.859 127.855 471.188 127.293 470.664C126.738 470.133 126.051 469.867 125.23 469.867C124.129 469.867 123.273 470.266 122.664 471.062C122.062 471.852 121.762 472.996 121.762 474.496V474.906C121.762 476.367 122.062 477.492 122.664 478.281C123.266 479.07 124.125 479.465 125.242 479.465ZM137.98 481.234C136.262 481.234 134.863 480.672 133.785 479.547C132.707 478.414 132.168 476.902 132.168 475.012V474.613C132.168 473.355 132.406 472.234 132.883 471.25C133.367 470.258 134.039 469.484 134.898 468.93C135.766 468.367 136.703 468.086 137.711 468.086C139.359 468.086 140.641 468.629 141.555 469.715C142.469 470.801 142.926 472.355 142.926 474.379V475.281H134.336C134.367 476.531 134.73 477.543 135.426 478.316C136.129 479.082 137.02 479.465 138.098 479.465C138.863 479.465 139.512 479.309 140.043 478.996C140.574 478.684 141.039 478.27 141.438 477.754L142.762 478.785C141.699 480.418 140.105 481.234 137.98 481.234ZM137.711 469.867C136.836 469.867 136.102 470.188 135.508 470.828C134.914 471.461 134.547 472.352 134.406 473.5H140.758V473.336C140.695 472.234 140.398 471.383 139.867 470.781C139.336 470.172 138.617 469.867 137.711 469.867Z" fill="black"/>
<rect y="580" width="200" height="50" fill="#70A8DC"/>
<path d="M78.2578 605.395C76.3281 604.84 74.9219 604.16 74.0391 603.355C73.1641 602.543 72.7266 601.543 72.7266 600.355C72.7266 599.012 73.2617 597.902 74.332 597.027C75.4102 596.145 76.8086 595.703 78.5273 595.703C79.6992 595.703 80.7422 595.93 81.6562 596.383C82.5781 596.836 83.2891 597.461 83.7891 598.258C84.2969 599.055 84.5508 599.926 84.5508 600.871H82.2891C82.2891 599.84 81.9609 599.031 81.3047 598.445C80.6484 597.852 79.7227 597.555 78.5273 597.555C77.418 597.555 76.5508 597.801 75.9258 598.293C75.3086 598.777 75 599.453 75 600.32C75 601.016 75.293 601.605 75.8789 602.09C76.4727 602.566 77.4766 603.004 78.8906 603.402C80.3125 603.801 81.4219 604.242 82.2188 604.727C83.0234 605.203 83.6172 605.762 84 606.402C84.3906 607.043 84.5859 607.797 84.5859 608.664C84.5859 610.047 84.0469 611.156 82.9688 611.992C81.8906 612.82 80.4492 613.234 78.6445 613.234C77.4727 613.234 76.3789 613.012 75.3633 612.566C74.3477 612.113 73.5625 611.496 73.0078 610.715C72.4609 609.934 72.1875 609.047 72.1875 608.055H74.4492C74.4492 609.086 74.8281 609.902 75.5859 610.504C76.3516 611.098 77.3711 611.395 78.6445 611.395C79.832 611.395 80.7422 611.152 81.375 610.668C82.0078 610.184 82.3242 609.523 82.3242 608.688C82.3242 607.852 82.0312 607.207 81.4453 606.754C80.8594 606.293 79.7969 605.84 78.2578 605.395ZM98.3672 610.012L100.805 600.32H102.973L99.2812 613H97.5234L94.4414 603.391L91.4414 613H89.6836L86.0039 600.32H88.1602L90.6562 609.812L93.6094 600.32H95.3555L98.3672 610.012ZM110.449 613.234C108.73 613.234 107.332 612.672 106.254 611.547C105.176 610.414 104.637 608.902 104.637 607.012V606.613C104.637 605.355 104.875 604.234 105.352 603.25C105.836 602.258 106.508 601.484 107.367 600.93C108.234 600.367 109.172 600.086 110.18 600.086C111.828 600.086 113.109 600.629 114.023 601.715C114.938 602.801 115.395 604.355 115.395 606.379V607.281H106.805C106.836 608.531 107.199 609.543 107.895 610.316C108.598 611.082 109.488 611.465 110.566 611.465C111.332 611.465 111.98 611.309 112.512 610.996C113.043 610.684 113.508 610.27 113.906 609.754L115.23 610.785C114.168 612.418 112.574 613.234 110.449 613.234ZM110.18 601.867C109.305 601.867 108.57 602.188 107.977 602.828C107.383 603.461 107.016 604.352 106.875 605.5H113.227V605.336C113.164 604.234 112.867 603.383 112.336 602.781C111.805 602.172 111.086 601.867 110.18 601.867ZM117.398 606.555C117.398 604.578 117.855 603.008 118.77 601.844C119.684 600.672 120.895 600.086 122.402 600.086C123.949 600.086 125.156 600.633 126.023 601.727L126.129 600.32H128.109V612.695C128.109 614.336 127.621 615.629 126.645 616.574C125.676 617.52 124.371 617.992 122.73 617.992C121.816 617.992 120.922 617.797 120.047 617.406C119.172 617.016 118.504 616.48 118.043 615.801L119.168 614.5C120.098 615.648 121.234 616.223 122.578 616.223C123.633 616.223 124.453 615.926 125.039 615.332C125.633 614.738 125.93 613.902 125.93 612.824V611.734C125.062 612.734 123.879 613.234 122.379 613.234C120.895 613.234 119.691 612.637 118.77 611.441C117.855 610.246 117.398 608.617 117.398 606.555ZM119.578 606.801C119.578 608.23 119.871 609.355 120.457 610.176C121.043 610.988 121.863 611.395 122.918 611.395C124.285 611.395 125.289 610.773 125.93 609.531V603.742C125.266 602.531 124.27 601.926 122.941 601.926C121.887 601.926 121.062 602.336 120.469 603.156C119.875 603.977 119.578 605.191 119.578 606.801Z" fill="black"/>
<rect y="712" width="200" height="50" fill="#70A8DC"/>
<path d="M65.9414 739.586C65.7305 741.391 65.0625 742.785 63.9375 743.77C62.8203 744.746 61.332 745.234 59.4727 745.234C57.457 745.234 55.8398 744.512 54.6211 743.066C53.4102 741.621 52.8047 739.688 52.8047 737.266V735.625C52.8047 734.039 53.0859 732.645 53.6484 731.441C54.2188 730.238 55.0234 729.316 56.0625 728.676C57.1016 728.027 58.3047 727.703 59.6719 727.703C61.4844 727.703 62.9375 728.211 64.0312 729.227C65.125 730.234 65.7617 731.633 65.9414 733.422H63.6797C63.4844 732.062 63.0586 731.078 62.4023 730.469C61.7539 729.859 60.8438 729.555 59.6719 729.555C58.2344 729.555 57.1055 730.086 56.2852 731.148C55.4727 732.211 55.0664 733.723 55.0664 735.684V737.336C55.0664 739.188 55.4531 740.66 56.2266 741.754C57 742.848 58.082 743.395 59.4727 743.395C60.7227 743.395 61.6797 743.113 62.3438 742.551C63.0156 741.98 63.4609 740.992 63.6797 739.586H65.9414ZM74.8125 734.266C74.4844 734.211 74.1289 734.184 73.7461 734.184C72.3242 734.184 71.3594 734.789 70.8516 736V745H68.6836V732.32H70.793L70.8281 733.785C71.5391 732.652 72.5469 732.086 73.8516 732.086C74.2734 732.086 74.5938 732.141 74.8125 732.25V734.266ZM79.1719 745H77.0039V732.32H79.1719V745ZM76.8281 728.957C76.8281 728.605 76.9336 728.309 77.1445 728.066C77.3633 727.824 77.6836 727.703 78.1055 727.703C78.5273 727.703 78.8477 727.824 79.0664 728.066C79.2852 728.309 79.3945 728.605 79.3945 728.957C79.3945 729.309 79.2852 729.602 79.0664 729.836C78.8477 730.07 78.5273 730.188 78.1055 730.188C77.6836 730.188 77.3633 730.07 77.1445 729.836C76.9336 729.602 76.8281 729.309 76.8281 728.957ZM90.0352 741.637C90.0352 741.051 89.8125 740.598 89.3672 740.277C88.9297 739.949 88.1602 739.668 87.0586 739.434C85.9648 739.199 85.0938 738.918 84.4453 738.59C83.8047 738.262 83.3281 737.871 83.0156 737.418C82.7109 736.965 82.5586 736.426 82.5586 735.801C82.5586 734.762 82.9961 733.883 83.8711 733.164C84.7539 732.445 85.8789 732.086 87.2461 732.086C88.6836 732.086 89.8477 732.457 90.7383 733.199C91.6367 733.941 92.0859 734.891 92.0859 736.047H89.9062C89.9062 735.453 89.6523 734.941 89.1445 734.512C88.6445 734.082 88.0117 733.867 87.2461 733.867C86.457 733.867 85.8398 734.039 85.3945 734.383C84.9492 734.727 84.7266 735.176 84.7266 735.73C84.7266 736.254 84.9336 736.648 85.3477 736.914C85.7617 737.18 86.5078 737.434 87.5859 737.676C88.6719 737.918 89.5508 738.207 90.2227 738.543C90.8945 738.879 91.3906 739.285 91.7109 739.762C92.0391 740.23 92.2031 740.805 92.2031 741.484C92.2031 742.617 91.75 743.527 90.8438 744.215C89.9375 744.895 88.7617 745.234 87.3164 745.234C86.3008 745.234 85.4023 745.055 84.6211 744.695C83.8398 744.336 83.2266 743.836 82.7812 743.195C82.3438 742.547 82.125 741.848 82.125 741.098H84.293C84.332 741.824 84.6211 742.402 85.1602 742.832C85.707 743.254 86.4258 743.465 87.3164 743.465C88.1367 743.465 88.793 743.301 89.2852 742.973C89.7852 742.637 90.0352 742.191 90.0352 741.637ZM106.254 742.012L108.691 732.32H110.859L107.168 745H105.41L102.328 735.391L99.3281 745H97.5703L93.8906 732.32H96.0469L98.543 741.812L101.496 732.32H103.242L106.254 742.012ZM118.336 745.234C116.617 745.234 115.219 744.672 114.141 743.547C113.062 742.414 112.523 740.902 112.523 739.012V738.613C112.523 737.355 112.762 736.234 113.238 735.25C113.723 734.258 114.395 733.484 115.254 732.93C116.121 732.367 117.059 732.086 118.066 732.086C119.715 732.086 120.996 732.629 121.91 733.715C122.824 734.801 123.281 736.355 123.281 738.379V739.281H114.691C114.723 740.531 115.086 741.543 115.781 742.316C116.484 743.082 117.375 743.465 118.453 743.465C119.219 743.465 119.867 743.309 120.398 742.996C120.93 742.684 121.395 742.27 121.793 741.754L123.117 742.785C122.055 744.418 120.461 745.234 118.336 745.234ZM118.066 733.867C117.191 733.867 116.457 734.188 115.863 734.828C115.27 735.461 114.902 736.352 114.762 737.5H121.113V737.336C121.051 736.234 120.754 735.383 120.223 734.781C119.691 734.172 118.973 733.867 118.066 733.867ZM133.629 745C133.504 744.75 133.402 744.305 133.324 743.664C132.316 744.711 131.113 745.234 129.715 745.234C128.465 745.234 127.438 744.883 126.633 744.18C125.836 743.469 125.438 742.57 125.438 741.484C125.438 740.164 125.938 739.141 126.938 738.414C127.945 737.68 129.359 737.312 131.18 737.312H133.289V736.316C133.289 735.559 133.062 734.957 132.609 734.512C132.156 734.059 131.488 733.832 130.605 733.832C129.832 733.832 129.184 734.027 128.66 734.418C128.137 734.809 127.875 735.281 127.875 735.836H125.695C125.695 735.203 125.918 734.594 126.363 734.008C126.816 733.414 127.426 732.945 128.191 732.602C128.965 732.258 129.812 732.086 130.734 732.086C132.195 732.086 133.34 732.453 134.168 733.188C134.996 733.914 135.426 734.918 135.457 736.199V742.035C135.457 743.199 135.605 744.125 135.902 744.812V745H133.629ZM130.031 743.348C130.711 743.348 131.355 743.172 131.965 742.82C132.574 742.469 133.016 742.012 133.289 741.449V738.848H131.59C128.934 738.848 127.605 739.625 127.605 741.18C127.605 741.859 127.832 742.391 128.285 742.773C128.738 743.156 129.32 743.348 130.031 743.348ZM141.281 740.184H139.324L139.172 727.938H141.445L141.281 740.184ZM139.09 743.91C139.09 743.559 139.195 743.266 139.406 743.031C139.625 742.789 139.945 742.668 140.367 742.668C140.789 742.668 141.109 742.789 141.328 743.031C141.547 743.266 141.656 743.559 141.656 743.91C141.656 744.262 141.547 744.555 141.328 744.789C141.109 745.016 140.789 745.129 140.367 745.129C139.945 745.129 139.625 745.016 139.406 744.789C139.195 744.555 139.09 744.262 139.09 743.91ZM147.469 740.184H145.512L145.359 727.938H147.633L147.469 740.184ZM145.277 743.91C145.277 743.559 145.383 743.266 145.594 743.031C145.812 742.789 146.133 742.668 146.555 742.668C146.977 742.668 147.297 742.789 147.516 743.031C147.734 743.266 147.844 743.559 147.844 743.91C147.844 744.262 147.734 744.555 147.516 744.789C147.297 745.016 146.977 745.129 146.555 745.129C146.133 745.129 145.812 745.016 145.594 744.789C145.383 744.555 145.277 744.262 145.277 743.91Z" fill="black"/>
<rect y="844" width="200" height="50" fill="#70A8DC"/>
<path d="M76.2773 877V859.938H81.8555C83.707 859.938 85.0977 860.32 86.0273 861.086C86.9648 861.852 87.4336 862.984 87.4336 864.484C87.4336 865.281 87.207 865.988 86.7539 866.605C86.3008 867.215 85.6836 867.688 84.9023 868.023C85.8242 868.281 86.5508 868.773 87.082 869.5C87.6211 870.219 87.8906 871.078 87.8906 872.078C87.8906 873.609 87.3945 874.812 86.4023 875.688C85.4102 876.562 84.0078 877 82.1953 877H76.2773ZM78.5273 869.02V875.16H82.2422C83.2891 875.16 84.1133 874.891 84.7148 874.352C85.3242 873.805 85.6289 873.055 85.6289 872.102C85.6289 870.047 84.5117 869.02 82.2773 869.02H78.5273ZM78.5273 867.215H81.9258C82.9102 867.215 83.6953 866.969 84.2812 866.477C84.875 865.984 85.1719 865.316 85.1719 864.473C85.1719 863.535 84.8984 862.855 84.3516 862.434C83.8047 862.004 82.9727 861.789 81.8555 861.789H78.5273V867.215ZM96.1523 877.234C94.4336 877.234 93.0352 876.672 91.957 875.547C90.8789 874.414 90.3398 872.902 90.3398 871.012V870.613C90.3398 869.355 90.5781 868.234 91.0547 867.25C91.5391 866.258 92.2109 865.484 93.0703 864.93C93.9375 864.367 94.875 864.086 95.8828 864.086C97.5312 864.086 98.8125 864.629 99.7266 865.715C100.641 866.801 101.098 868.355 101.098 870.379V871.281H92.5078C92.5391 872.531 92.9023 873.543 93.5977 874.316C94.3008 875.082 95.1914 875.465 96.2695 875.465C97.0352 875.465 97.6836 875.309 98.2148 874.996C98.7461 874.684 99.2109 874.27 99.6094 873.754L100.934 874.785C99.8711 876.418 98.2773 877.234 96.1523 877.234ZM95.8828 865.867C95.0078 865.867 94.2734 866.188 93.6797 866.828C93.0859 867.461 92.7188 868.352 92.5781 869.5H98.9297V869.336C98.8672 868.234 98.5703 867.383 98.0391 866.781C97.5078 866.172 96.7891 865.867 95.8828 865.867ZM108.703 875.465C109.477 875.465 110.152 875.23 110.73 874.762C111.309 874.293 111.629 873.707 111.691 873.004H113.742C113.703 873.73 113.453 874.422 112.992 875.078C112.531 875.734 111.914 876.258 111.141 876.648C110.375 877.039 109.562 877.234 108.703 877.234C106.977 877.234 105.602 876.66 104.578 875.512C103.562 874.355 103.055 872.777 103.055 870.777V870.414C103.055 869.18 103.281 868.082 103.734 867.121C104.188 866.16 104.836 865.414 105.68 864.883C106.531 864.352 107.535 864.086 108.691 864.086C110.113 864.086 111.293 864.512 112.23 865.363C113.176 866.215 113.68 867.32 113.742 868.68H111.691C111.629 867.859 111.316 867.188 110.754 866.664C110.199 866.133 109.512 865.867 108.691 865.867C107.59 865.867 106.734 866.266 106.125 867.062C105.523 867.852 105.223 868.996 105.223 870.496V870.906C105.223 872.367 105.523 873.492 106.125 874.281C106.727 875.07 107.586 875.465 108.703 875.465ZM119.719 871.129L118.359 872.547V877H116.191V859H118.359V869.887L119.52 868.492L123.469 864.32H126.105L121.172 869.617L126.68 877H124.137L119.719 871.129Z" fill="black"/>
<rect y="976" width="200" height="50" fill="#70A8DC"/>
<path d="M72.4336 1004.55H65.2852L63.6797 1009H61.3594L67.875 991.938H69.8438L76.3711 1009H74.0625L72.4336 1004.55ZM65.9648 1002.7H71.7656L68.8594 994.715L65.9648 1002.7ZM80.6836 1009H78.5156V991H80.6836V1009ZM86.5195 1009H84.3516V991H86.5195V1009ZM101.227 1006.01L103.664 996.32H105.832L102.141 1009H100.383L97.3008 999.391L94.3008 1009H92.543L88.8633 996.32H91.0195L93.5156 1005.81L96.4688 996.32H98.2148L101.227 1006.01ZM115.875 1009C115.75 1008.75 115.648 1008.3 115.57 1007.66C114.562 1008.71 113.359 1009.23 111.961 1009.23C110.711 1009.23 109.684 1008.88 108.879 1008.18C108.082 1007.47 107.684 1006.57 107.684 1005.48C107.684 1004.16 108.184 1003.14 109.184 1002.41C110.191 1001.68 111.605 1001.31 113.426 1001.31H115.535V1000.32C115.535 999.559 115.309 998.957 114.855 998.512C114.402 998.059 113.734 997.832 112.852 997.832C112.078 997.832 111.43 998.027 110.906 998.418C110.383 998.809 110.121 999.281 110.121 999.836H107.941C107.941 999.203 108.164 998.594 108.609 998.008C109.062 997.414 109.672 996.945 110.438 996.602C111.211 996.258 112.059 996.086 112.98 996.086C114.441 996.086 115.586 996.453 116.414 997.188C117.242 997.914 117.672 998.918 117.703 1000.2V1006.04C117.703 1007.2 117.852 1008.12 118.148 1008.81V1009H115.875ZM112.277 1007.35C112.957 1007.35 113.602 1007.17 114.211 1006.82C114.82 1006.47 115.262 1006.01 115.535 1005.45V1002.85H113.836C111.18 1002.85 109.852 1003.62 109.852 1005.18C109.852 1005.86 110.078 1006.39 110.531 1006.77C110.984 1007.16 111.566 1007.35 112.277 1007.35ZM127.23 998.266C126.902 998.211 126.547 998.184 126.164 998.184C124.742 998.184 123.777 998.789 123.27 1000V1009H121.102V996.32H123.211L123.246 997.785C123.957 996.652 124.965 996.086 126.27 996.086C126.691 996.086 127.012 996.141 127.23 996.25V998.266ZM136.617 1005.64C136.617 1005.05 136.395 1004.6 135.949 1004.28C135.512 1003.95 134.742 1003.67 133.641 1003.43C132.547 1003.2 131.676 1002.92 131.027 1002.59C130.387 1002.26 129.91 1001.87 129.598 1001.42C129.293 1000.96 129.141 1000.43 129.141 999.801C129.141 998.762 129.578 997.883 130.453 997.164C131.336 996.445 132.461 996.086 133.828 996.086C135.266 996.086 136.43 996.457 137.32 997.199C138.219 997.941 138.668 998.891 138.668 1000.05H136.488C136.488 999.453 136.234 998.941 135.727 998.512C135.227 998.082 134.594 997.867 133.828 997.867C133.039 997.867 132.422 998.039 131.977 998.383C131.531 998.727 131.309 999.176 131.309 999.73C131.309 1000.25 131.516 1000.65 131.93 1000.91C132.344 1001.18 133.09 1001.43 134.168 1001.68C135.254 1001.92 136.133 1002.21 136.805 1002.54C137.477 1002.88 137.973 1003.29 138.293 1003.76C138.621 1004.23 138.785 1004.8 138.785 1005.48C138.785 1006.62 138.332 1007.53 137.426 1008.21C136.52 1008.89 135.344 1009.23 133.898 1009.23C132.883 1009.23 131.984 1009.05 131.203 1008.7C130.422 1008.34 129.809 1007.84 129.363 1007.2C128.926 1006.55 128.707 1005.85 128.707 1005.1H130.875C130.914 1005.82 131.203 1006.4 131.742 1006.83C132.289 1007.25 133.008 1007.46 133.898 1007.46C134.719 1007.46 135.375 1007.3 135.867 1006.97C136.367 1006.64 136.617 1006.19 136.617 1005.64Z" fill="black"/>
<path d="M210 50H235V184H210M235 116.362H260" stroke="black" stroke-width="4"/>
<path d="M470 110H495V371H470M495 239.257H520" stroke="black" stroke-width="4"/>
<path d="M730 237H755V775H730M755 503.438H780" stroke="black" stroke-width="4"/>
<path d="M470 645H495V906H470M495 774.257H520" stroke="black" stroke-width="4"/>
<path d="M210 314H235V448H210M235 380.362H260" stroke="black" stroke-width="4"/>
<path d="M210 578H235V712H210M235 644.362H260" stroke="black" stroke-width="4"/>
<path d="M210 842H235V974H210M235 907.371H260" stroke="black" stroke-width="4"/>
</svg>
